<?xml version="1.0" encoding="UTF-8"?>
<svg xmlns="http://www.w3.org/2000/svg" viewBox="0 0 359.17 175.68">
  <g style="isolation: isolate;">
    <g id="uuid-b452cf00-447f-470e-8c33-81a0c8c82acc" data-name="Layer 1">
      <g>
        <g>
          <g>
            <path d="m176.77,136.04c1.23-.17,3.33.09,5.74,1.1,3.44,1.43,7.5,4.36,10.55,9.63-.01,9.16-5.05,16.16-9.45,20.53-3.4,3.38-6.43,5.19-6.43,5.19l1.46,2.43h43.72s-7.33-14.07-12.18-12.01c-1.15.49-3.19,1.32-5.65,2.29-7.75,3.08-19.57,7.64-19.93,7.78.46-.55,15.29-17.89,24.4-22.31-.09,1.82.45,3.15,4.33-2.55.61,2.19,1.82.85,1.46-1.58-.37-2.42-1.48-20.57-11.64-33.63-3.52-4.52-13.82-8.22-23.29.64-9.46,8.85-6.07,22.92-3.09,22.5Z" style="fill: #d3905f;"/>
            <path d="m193.06,146.77c-.01,9.16-5.05,16.16-9.45,20.53,2.13-.58,3.84-1.21,3.84-1.21,4.1-3.51,11.85-17.55,11.85-19.6s-1.61-9.51-1.02-11.11c.59-1.61-12.58-5.41-13.17-5.12-.2.11-1.28,3.07-2.6,6.88,3.44,1.43,7.5,4.36,10.55,9.63Z" style="fill: #d3905f; mix-blend-mode: multiply; opacity: .2;"/>
            <path d="m201.52,174.91h20.84s-7.33-14.07-12.18-12.01c-1.15.49-3.19,1.32-5.64,2.29-2.83,3.45-3.07,7.82-3.02,9.72Z" style="fill: #64452e;"/>
            <g>
              <path d="m210.8,174.91h.55c.25-1.75.27-4.9-2.18-7.03l-.37.42c2.3,2,2.24,5,1.99,6.61Z" style="fill: #64452e; mix-blend-mode: multiply; opacity: .5;"/>
              <path d="m214.07,167.82c2.5,2.66,2.82,5.73,2.83,7.09h.56c0-1.44-.33-4.64-2.98-7.47l-.4.38Z" style="fill: #64452e; mix-blend-mode: multiply; opacity: .5;"/>
            </g>
          </g>
          <g>
            <path d="m205.82,109.44c1.02-.1,1.94-1.53,1.94-1.53,0,0,0,1.63.71,2.04,1.36-2.28,6.6-6.25,9.63-8.45,1.24-.89,2.11-1.48,2.2-1.54l-4.89,7.64s5.41,4.28,10.81.92c.81-6.02-2.86-13.36-5.31-11.32-.6.5-1.65,1.11-2.91,1.75-.03.01-.05.03-.08.04-3.81,1.94-9.36,4.12-9.36,4.12,0,0-4.79-8.7-3.15-17.99,0,0-5.1-5.67-5.41,4.42-.3,10.1,4.79,19.99,5.82,19.89Z" style="fill: #d3905f;"/>
            <path d="m215.41,107.6s1.04.82,2.66,1.47c.2.08.43.16.65.23,1.25.41,2.77.66,4.39.4h0c.22-.03.43-.08.65-.13.8-.2,1.63-.54,2.45-1.05.81-6.02-2.86-13.36-5.31-11.32-.6.5-1.65,1.11-2.91,1.75-.37,1.39-.14,2.16.09,2.55,1.24-.89,2.11-1.48,2.2-1.54l-4.89,7.64Z" style="fill: #64452e;"/>
            <path d="m218.29,108.91c.19.07.4.15.62.22,1.26-.88,2.71-2.55,3.53-6.31l-.52-.11c-.86,3.92-2.41,5.44-3.63,6.2Z" style="fill: #64452e; mix-blend-mode: multiply; opacity: .5;"/>
            <path d="m223.11,109.7c.22-.03.43-.08.65-.13.65-1.6,1.2-3.91,1.16-5.94h-.55c.05,2.35-.63,4.67-1.26,6.08Z" style="fill: #64452e; mix-blend-mode: multiply; opacity: .5;"/>
            <path d="m207.61,104.41s8.01-2.94,10.32-5.41c-3.81,1.94-9.36,4.12-9.36,4.12,0,0-4.79-8.7-3.15-17.99-2.85,8.21,2.19,19.28,2.19,19.28Z" style="fill: #d3905f; mix-blend-mode: screen; opacity: .3;"/>
          </g>
          <g>
            <path d="m184.99,28.43l2.01-.14,1.49-.11s.55-.35,1.44-.97c.54-.37,1.21-.84,1.96-1.37,1.23-.88,2.68-1.95,4.15-3.1.17-.14.34-.27.51-.41,2.31-1.87,4.58-3.92,5.97-5.74.82-1.08,1.34-2.09,1.36-2.92.12-4.63-2.88-12.14-4.13-11.89-.89.18-7.89,13.42-11.92,21.17-1.34,2.57-2.35,4.53-2.71,5.22-.08.17-.13.27-.13.27Z" style="fill: #d3905f;"/>
            <path d="m187.01,28.29l1.49-.11s10.27-6.65,14.03-11.6c.55-3.53-.89-7.82-1.52-7.29-.66.55-11.26,15.19-14,19Z" style="fill: #f0c09f;"/>
            <path d="m185.12,28.17l3.36-.95c.95-.37,2.11-.84,3.41-1.37,1.23-.88,2.68-1.95,4.15-3.1-3.81.29-6.98.24-8.22.21-1.34,2.57-2.35,4.53-2.71,5.22Z" style="fill: #d3905f; mix-blend-mode: multiply; opacity: .4;"/>
            <path d="m184.54,29.21C179.02,16.57,172.74.53,169.94.02c-2.8-.51-2.97,10.95-2.29,16.89.68,5.94,15.11,16.72,15.11,16.72l1.78-4.41Z" style="fill: #d3905f;"/>
            <path d="m183.77,29.98s-12.14-26.31-13.07-26.56c-.93-.25-.51,8.15,1.78,15.02,2.29,6.87,10.61,12.82,10.61,12.82l.68-1.27Z" style="fill: #f0c09f;"/>
            <path d="m182.28,58.11c2.62,14.09,16.17,10.12,13.64,1.8-2.2-7.23,2.03-13.99,3.17-15.62.17-.24.27-.37.27-.37,0,0,.32.37.9.96,2.28,2.3,8.56,7.96,14.9,7.53,7.59-.51,11.62-8,12.94-13.37.45-1.84.59-3.44.43-4.42-.25-1.62-3.9-3.62-9.01-5.37-11.25-3.87-29.59-6.57-34.35-1.49-5.5,5.87-5.51,16.26-2.89,30.36Z" style="fill: #d3905f;"/>
            <path d="m219.52,29.25c.1,2.4.7,8.09,2.24,8.99,1.05.61,4.1.77,6.34.81.45-1.84.59-3.44.43-4.42-.25-1.62-3.9-3.62-9.01-5.37Z" style="fill: #64452e;"/>
            <g>
              <path d="m189.6,34.28c.44,2.24,2.61,3.7,4.85,3.26,2.24-.44,3.7-2.61,3.26-4.85-.44-2.24-2.61-3.7-4.85-3.26-2.24.44-3.7,2.61-3.26,4.85Z" style="fill: #bd764f;"/>
              <path d="m190.2,34.16c.37,1.91,2.22,3.15,4.13,2.78,1.91-.37,3.15-2.22,2.78-4.13-.37-1.91-2.22-3.15-4.13-2.78-1.91.37-3.15,2.22-2.78,4.13Z" style="fill: #64452e;"/>
              <path d="m190.28,34.55c.33,1.69,2.14,2.76,4.05,2.39,1.91-.37,3.19-2.04,2.86-3.73s-2.14-2.76-4.05-2.39c-1.91.37-3.19,2.04-2.86,3.73Z" style="fill: #fff;"/>
              <path d="m191.76,33.86c.19.96,1.12,1.59,2.08,1.4.96-.19,1.59-1.12,1.4-2.08-.19-.96-1.12-1.59-2.08-1.4-.96.19-1.59,1.12-1.4,2.08Z" style="fill: #64452e;"/>
              <circle cx="192.13" cy="32.75" r=".63" style="fill: #fff;"/>
            </g>
            <path d="m198.47,34.24c-5.62-1.81-8.62,1.02-9.36,2.35-.74,1.33,2.01,3.02,6.38,2.28,4.37-.74,5.82-3.71,2.98-4.62Z" style="fill: #d3905f;"/>
            <path d="m194.9,39.71l.46.29s.29-.43.87-.71c.22.52,1.22,2.81,2.84,5.01.17-.24.27-.37.27-.37,0,0,.32.37.9.96-1.98-2.35-3.24-5.18-3.49-5.78.34-.08.75-.11,1.25-.04l.08-.55c-2.22-.32-3.14,1.12-3.18,1.18Z" style="fill: #bd764f;"/>
            <path d="m226.7,34.35c.44.84-4.72.59-5.19.41s-1.36-3.89-1.24-4.48c.12-.59,5.72,2.71,6.43,4.07Z" style="fill: #64452e; mix-blend-mode: screen; opacity: .5;"/>
            <path d="m195.17,27.48c-2.62-.89-6.42,2.01-6.42,2.01,0,0,2.73-5.47,6.42-2.01Z" style="fill: #64452e;"/>
          </g>
          <path d="m96.88,172.87c-.11,1.13,10.8,2.62,20.6,2.79,5.68.1,10.99-.24,13.55-1.36,6.98-3.04,13.42-24.86,21.1-29.33,7.69-4.47,33.08-1.43,47.38-9.66,14.31-8.22,19.49-17.34,19.49-22.18,0-3.93-14.01-32.29-20.27-46.31-1.43-3.22-2.46-5.67-2.82-6.92-1.94-6.67-14.25-7.67-13.64-1.8.9,8.66,3.12,24.46-4.04,32.5-7.15,8.05-27.53,17.88-32.19,25.39-4.65,7.51-16.19,42.86-21.01,47.87-4.83,5-27.98,7.21-28.16,8.99Z" style="fill: #d3905f;"/>
          <path d="m117.48,175.67c5.68.1,10.99-.24,13.55-1.36,6.98-3.04,13.42-24.86,21.1-29.33,7.69-4.47,33.08-1.43,47.38-9.66,14.31-8.22,19.49-17.34,19.49-22.18,0-3.93-14.01-32.29-20.27-46.31-4.02-3.38-6.15.1-3.87,13.23,2.68,15.38,3.76,26.29.54,32.36-3.22,6.08-11.26,11.09-21.82,15.02-10.55,3.93-16.09,5.55-21.63,8.58-5.55,3.04-16.09,29.69-20.03,34.51-2.76,3.39-9.23,4.67-14.44,5.12Z" style="fill: #f0c09f;"/>
          <path d="m186.92,114.44c1.02-.06,2-1.46,2-1.46,0,0,.51,1.83,1.21,2.28,1.45-2.24,6.28-6.21,9.41-8.29,1.28-.84,2.17-1.4,2.26-1.46l-5.22,7.49s5.22,4.55,10.76,1.39c1.07-6.03-2.28-13.59-4.81-11.63-.62.48-1.7,1.05-2.98,1.64-.03,0-.05.03-.08.04-3.89,1.79-9.53,3.75-9.53,3.75,0,0-1.22-10.22.81-19.5,0,0-8.04-4.69-8.78,5.47-.74,10.17,3.92,20.35,4.95,20.3Z" style="fill: #d3905f; mix-blend-mode: multiply; opacity: .4;"/>
          <path d="m211.78,126.16c-8.42,3.22-16.47-5.04-16.47-5.04,0,0,8.56,12.99,16.47,5.04Z" style="fill: #bd7d67;"/>
          <g>
            <path d="m151.96,136.04c2.98-.42,11.1,1.76,16.29,10.73-.02,13.24-10.54,21.97-14.44,24.75-.79.57-1.02,1.64-.52,2.48h0c.34.56.94.91,1.6.91h42.66s-7.33-14.07-12.18-12.01c-1.15.49-3.19,1.32-5.65,2.29-7.88,3.13-19.95,7.78-19.95,7.78,0,0,15.16-17.83,24.41-22.31-.09,1.82.45,3.15,4.33-2.55.61,2.19,1.82.85,1.46-1.58-.37-2.42-1.48-20.57-11.64-33.63-3.52-4.52-13.82-8.22-23.29.64-9.46,8.85-6.07,22.92-3.09,22.5Z" style="fill: #d3905f;"/>
            <path d="m176.71,174.91h20.84s-7.33-14.07-12.18-12.01c-1.15.49-3.19,1.32-5.65,2.29-2.83,3.45-3.07,7.82-3.02,9.72Z" style="fill: #64452e;"/>
            <g>
              <path d="m185.99,174.91h.55c.25-1.75.27-4.9-2.18-7.03l-.37.42c2.3,2,2.24,5,1.99,6.61Z" style="fill: #64452e; mix-blend-mode: multiply; opacity: .5;"/>
              <path d="m189.26,167.82c2.5,2.66,2.82,5.73,2.83,7.09h.56c0-1.44-.33-4.64-2.98-7.47l-.4.38Z" style="fill: #64452e; mix-blend-mode: multiply; opacity: .5;"/>
            </g>
            <path d="m185.99,143.81c-.67,3.4-8.18-5.56-8.71-7.38-.05,3.29-2.17.29-5.11-2.43-2.93-2.72-16.69-5.73-17.74-10.92-1.05-5.19,14.87-13.92,22.25-6.72,7.38,7.2,9.92,24.42,9.32,27.45Z" style="fill: #946543; mix-blend-mode: screen; opacity: .2;"/>
          </g>
          <g>
            <path d="m187.96,113.04c1.02-.1,1.94-1.53,1.94-1.53,0,0,0,1.63.71,2.04,1.36-2.28,6.6-6.25,9.63-8.45,1.24-.89,2.11-1.48,2.2-1.54l-4.89,7.64s5.41,4.28,10.81.92c.81-6.02-2.86-13.36-5.31-11.32-.6.5-1.65,1.11-2.91,1.75-.03.01-.05.03-.08.04-3.81,1.94-9.36,4.12-9.36,4.12,0,0-.81-10.19.82-19.48,0,0-9.08-4.18-9.39,5.92-.3,10.1,4.79,19.99,5.82,19.89Z" style="fill: #d3905f;"/>
            <g>
              <path d="m200.34,112.69c.19.07.4.15.62.22,1.26-.88,2.71-2.55,3.53-6.31l-.52-.11c-.86,3.92-2.41,5.44-3.63,6.2Z" style="fill: #64452e; mix-blend-mode: multiply; opacity: .5;"/>
              <path d="m205.26,113.3c.22-.03.43-.08.65-.13.65-1.6,1.2-3.91,1.16-5.94h-.55c.05,2.35-.63,4.67-1.26,6.08Z" style="fill: #64452e; mix-blend-mode: multiply; opacity: .5;"/>
            </g>
            <path d="m189.75,108s8.01-2.94,10.32-5.41c-3.81,1.94-9.36,4.12-9.36,4.12,0,0-.81-10.19.82-19.48-2.85,8.21-1.78,20.77-1.78,20.77Z" style="fill: #d3905f; mix-blend-mode: screen; opacity: .3;"/>
          </g>
        </g>
        <path d="m200.27,112.71c.19.07.4.15.62.22,1.26-.88,2.71-2.55,3.53-6.31l-.52-.11c-.86,3.92-2.41,5.44-3.63,6.2Z" style="fill: #64452e; mix-blend-mode: multiply; opacity: .5;"/>
        <path d="m205.18,113.32c.22-.03.43-.08.65-.13.65-1.6,1.2-3.91,1.16-5.94h-.55c.05,2.35-.63,4.67-1.26,6.08Z" style="fill: #64452e; mix-blend-mode: multiply; opacity: .5;"/>
        <g>
          <path d="m18,74.94c2.2-1.2,4.77-1.8,7.73-1.8,3.45,0,6.57.88,9.38,2.62,2.8,1.75,5.01,4.25,6.64,7.5,1.62,3.25,2.44,7.03,2.44,11.33s-.81,8.09-2.44,11.36c-1.63,3.28-3.84,5.8-6.64,7.58-2.8,1.78-5.92,2.66-9.38,2.66-2.9,0-5.46-.6-7.69-1.8-2.23-1.2-3.96-2.75-5.21-4.65v25.8H0v-61.8h12.83v5.92c1.25-1.95,2.97-3.53,5.17-4.73Zm10.46,12.11c-1.78-1.83-3.96-2.74-6.56-2.74s-4.71.93-6.49,2.78c-1.78,1.85-2.66,4.38-2.66,7.58s.89,5.73,2.66,7.58c1.77,1.85,3.94,2.77,6.49,2.77s4.73-.94,6.53-2.81c1.8-1.88,2.7-4.41,2.7-7.61s-.89-5.71-2.66-7.54Z" style="fill: #3c622f;"/>
          <path d="m58.91,113.57c-3.28-1.75-5.85-4.25-7.73-7.5-1.88-3.25-2.81-7.05-2.81-11.4s.95-8.09,2.85-11.36c1.9-3.27,4.5-5.79,7.8-7.54,3.3-1.75,7-2.62,11.1-2.62s7.8.88,11.1,2.62c3.3,1.75,5.9,4.26,7.8,7.54,1.9,3.28,2.85,7.06,2.85,11.36s-.96,8.09-2.89,11.36c-1.93,3.28-4.55,5.79-7.88,7.54-3.33,1.75-7.04,2.62-11.14,2.62s-7.79-.87-11.06-2.62Zm17.33-11.17c1.72-1.8,2.59-4.37,2.59-7.72s-.84-5.93-2.51-7.73c-1.68-1.8-3.74-2.7-6.19-2.7s-4.58.89-6.23,2.66c-1.65,1.78-2.48,4.36-2.48,7.76s.81,5.92,2.44,7.72c1.62,1.8,3.66,2.7,6.11,2.7s4.54-.9,6.26-2.7Z" style="fill: #3c622f;"/>
          <path d="m98.81,83.27c1.77-3.25,4.25-5.75,7.42-7.5,3.17-1.75,6.81-2.62,10.91-2.62,5.25,0,9.64,1.38,13.16,4.12,3.52,2.75,5.84,6.63,6.94,11.63h-13.65c-1.15-3.2-3.38-4.8-6.67-4.8-2.35,0-4.23.91-5.62,2.74-1.4,1.83-2.1,4.44-2.1,7.84s.7,6.01,2.1,7.84c1.4,1.83,3.27,2.74,5.62,2.74,3.3,0,5.52-1.6,6.67-4.8h13.65c-1.1,4.9-3.43,8.75-6.98,11.55-3.55,2.8-7.92,4.2-13.12,4.2-4.1,0-7.74-.87-10.91-2.62-3.18-1.75-5.65-4.25-7.42-7.5-1.78-3.25-2.66-7.05-2.66-11.4s.89-8.15,2.66-11.4Z" style="fill: #3c622f;"/>
          <path d="m169.65,115.59l-12.75-17.55v17.55h-12.82v-55.5h12.82v30.68l12.68-17.02h15.82l-17.4,21,17.55,20.85h-15.9Z" style="fill: #3c622f;"/>
          <path d="m229.65,97.74h-29.03c.2,2.6,1.04,4.59,2.51,5.96,1.47,1.38,3.29,2.06,5.44,2.06,3.2,0,5.42-1.35,6.67-4.05h13.65c-.7,2.75-1.96,5.23-3.79,7.42-1.83,2.2-4.11,3.93-6.86,5.17-2.75,1.25-5.83,1.88-9.22,1.88-4.1,0-7.75-.87-10.95-2.62-3.2-1.75-5.7-4.25-7.5-7.5-1.8-3.25-2.7-7.05-2.7-11.4s.89-8.15,2.66-11.4c1.77-3.25,4.26-5.75,7.46-7.5,3.2-1.75,6.88-2.62,11.03-2.62s7.65.85,10.8,2.55c3.15,1.7,5.61,4.12,7.39,7.28,1.77,3.15,2.66,6.83,2.66,11.03,0,1.2-.07,2.45-.22,3.75Zm-12.9-7.12c0-2.2-.75-3.95-2.25-5.25-1.5-1.3-3.38-1.95-5.62-1.95s-3.96.63-5.44,1.88c-1.47,1.25-2.39,3.03-2.74,5.33h16.05Z" style="fill: #3c622f;"/>
          <path d="m259.95,104.72v10.88h-6.52c-4.65,0-8.28-1.14-10.88-3.41-2.6-2.28-3.9-5.99-3.9-11.14v-16.65h-5.1v-10.65h5.1v-10.2h12.83v10.2h8.4v10.65h-8.4v16.8c0,1.25.3,2.15.9,2.7.6.55,1.6.83,3,.83h4.57Z" style="fill: #3c622f;"/>
        </g>
        <g>
          <path d="m306.6,90.36c-1.55,2.73-3.84,4.89-6.86,6.49-3.03,1.6-6.69,2.4-10.99,2.4h-6.6v16.88h-16.65v-53.1h23.25c6.5,0,11.49,1.65,14.96,4.95,3.47,3.3,5.21,7.73,5.21,13.27,0,3.35-.78,6.39-2.33,9.11Zm-14.55-9.11c0-3.25-1.72-4.88-5.17-4.88h-4.72v9.75h4.72c3.45,0,5.17-1.62,5.17-4.88Z" style="fill: #64933f;"/>
          <path d="m340.87,116.12l-9.98-19.05h-.07v19.05h-16.65v-53.1h24.75c4.3,0,7.97.76,11.03,2.29,3.05,1.53,5.34,3.6,6.86,6.23,1.52,2.62,2.29,5.59,2.29,8.89,0,3.55-.99,6.7-2.96,9.45-1.98,2.75-4.81,4.72-8.51,5.92l11.55,20.33h-18.3Zm-10.05-30.15h6.6c1.6,0,2.8-.36,3.6-1.09.8-.72,1.2-1.86,1.2-3.41,0-1.4-.41-2.5-1.24-3.3-.83-.8-2.01-1.2-3.56-1.2h-6.6v9Z" style="fill: #64933f;"/>
        </g>
        <path d="m215.4,107.6s1.04.82,2.66,1.47c.2.08.43.16.65.23,1.25.41,2.77.66,4.39.4h0c.22-.03.43-.08.65-.13.8-.2,1.63-.54,2.45-1.05.81-6.02-2.86-13.36-5.31-11.32-.6.5-1.65,1.11-2.91,1.75-.37,1.39-.14,2.16.09,2.55,1.24-.89,2.11-1.48,2.2-1.54l-4.89,7.64Z" style="fill: #64452e;"/>
        <path d="m218.29,108.91c.19.07.4.15.62.22,1.26-.88,2.71-2.55,3.53-6.31l-.52-.11c-.86,3.92-2.41,5.44-3.63,6.2Z" style="fill: #64452e; mix-blend-mode: multiply; opacity: .5;"/>
        <path d="m223.11,109.7c.22-.03.43-.08.65-.13.65-1.6,1.2-3.91,1.16-5.94h-.55c.05,2.35-.63,4.67-1.26,6.08Z" style="fill: #64452e; mix-blend-mode: multiply; opacity: .5;"/>
        <path d="m202.64,103.19l-5.09,8s1.04.82,2.66,1.47c.2.08.43.16.65.23,1.25.41,2.77.66,4.39.4h0c.22-.03.43-.08.65-.13.8-.2,1.63-.54,2.45-1.05.81-6.02-2.85-13.35-5.31-11.32-.31.26-.67.53-1.4.91l.19.37.22.36.37.51.21.24Z" style="fill: #64452e;"/>
        <path d="m200.43,112.51c.19.07.4.15.62.22,1.26-.88,2.71-2.55,3.53-6.31l-.52-.11c-.86,3.92-2.41,5.44-3.63,6.2Z" style="fill: #64452e; mix-blend-mode: multiply; opacity: .5;"/>
        <path d="m205.26,113.3c.22-.03.43-.08.65-.13.65-1.6,1.2-3.91,1.16-5.94h-.55c.05,2.35-.63,4.67-1.26,6.08Z" style="fill: #64452e; mix-blend-mode: multiply; opacity: .5;"/>
      </g>
    </g>
  </g>
</svg>