<?xml version="1.0" encoding="UTF-8"?>
<svg xmlns="http://www.w3.org/2000/svg" viewBox="0 0 460 342.61">
  <g style="isolation: isolate;">
    <g id="uuid-215c45d5-8c3a-4738-af8d-9ba75756ca3d" data-name="Layer 1">
      <g>
        <g>
          <path d="m59.72,342.53s20.14,1.26,27.27-5.88c2.64-2.64,6.51-10.13,10.77-19.03,7.22-15.09,15.59-34.21,21.13-40.54,8.81-10.07,62.2-19.58,62.2-19.58,0,0-2.94,6.71,8.38-2.94-3.77,10.07,5.81,3.58,12.12-.42,7.09-4.46,31.01-26.99,31.01-26.99-1.9-23.76-38.59-27.76-50.89-28.43-3.61,11.08-11.21,27.25-15.83,33.88-6.72,9.65-49.94,34.4-54.12,37.77-2.42,1.93-19.34,25.62-33.25,45.35-10.21,14.48-18.78,26.82-18.78,26.82Z" style="fill: #c47d56;"/>
          <path d="m59.73,342.53s20.14,1.26,27.26-5.88c2.64-2.64,6.51-10.13,10.77-19.03-4.15-3.91-12.68-3.22-19.25-1.9-7.08,10.04-13.37,19.06-16.56,23.64-.35.51-.66.95-.94,1.34-.82,1.18-1.28,1.84-1.28,1.84Z" style="fill: #503725;"/>
          <path d="m61.01,340.69c6.89-.28,21.14-2.28,25.73-13.51l-1.18-.47c-4.06,9.92-16.7,12.16-23.61,12.63-.35.51-.66.95-.94,1.34Z" style="fill: #64452e; mix-blend-mode: multiply; opacity: .5;"/>
        </g>
        <g>
          <path d="m312.07,194.02c1.75,1.56,5.58.88,5.58.88,0,0-2.74,2.53-2.31,4.37,5.94-1.27,20.78,1.35,29.19,3.04,3.43.7,5.78,1.24,6.02,1.29l-20.47,3.67s1.22,15.76,15.29,19.61c11.38-8,18.01-25.61,10.76-26.54-1.79-.23-4.45-1.05-7.47-2.15-.06-.03-.12-.04-.19-.07-9.19-3.38-21.49-9.32-21.49-9.32,0,0,3.35-21.19,21.51-32.9,0,0-7.11-21.76-24.56-6.57-17.45,15.21-13.63,43.13-11.87,44.69Z" style="fill: #d3905f;"/>
          <path d="m330.08,207.28s.23,3.03,1.68,6.76c.19.46.39.97.63,1.46,1.26,2.74,3.19,5.69,6.16,8h0c.39.32.8.61,1.24.9,1.58,1.04,3.44,1.9,5.58,2.49,11.38-8,18.01-25.61,10.76-26.54-1.79-.23-4.45-1.05-7.47-2.15-2.9,1.55-3.85,3.12-4.13,4.12,3.43.7,5.78,1.24,6.02,1.29l-20.47,3.67Z" style="fill: #64452e;"/>
          <path d="m332.37,214.16c.18.44.37.92.59,1.39,3.43.75,8.5.58,16.1-3.89l-.62-1.04c-7.92,4.66-12.89,4.42-16.07,3.54Z" style="fill: #64452e; mix-blend-mode: multiply; opacity: .5;"/>
          <path d="m338.56,223.5c.39.31.8.61,1.24.89,3.71-1.41,8.44-4.06,11.79-7.31l-.88-.91c-3.86,3.73-8.81,6.19-12.15,7.33Z" style="fill: #64452e; mix-blend-mode: multiply; opacity: .5;"/>
          <path d="m323.32,189.19s17.43,8.89,25.16,8.93c-9.19-3.38-21.49-9.32-21.49-9.32,0,0,3.35-21.19,21.51-32.9-18.24,7.99-25.18,33.29-25.18,33.29Z" style="fill: #d3905f; mix-blend-mode: screen; opacity: .3;"/>
        </g>
        <g>
          <path d="m367.41,70.55l4.54.89,3.36.66s1.42-.45,3.78-1.28c1.42-.49,3.18-1.12,5.17-1.86,3.26-1.21,7.1-2.7,11.03-4.38.46-.2.91-.4,1.37-.6,6.23-2.74,12.47-5.93,16.64-9.13,2.47-1.9,4.21-3.81,4.76-5.63,3.04-10.16.91-28.57-2.01-28.77-2.07-.13-25.5,24.95-39.06,39.67-4.5,4.88-7.92,8.61-9.11,9.92-.29.33-.45.51-.45.51Z" style="fill: #d3905f;"/>
          <path d="m371.95,71.44l3.36.66s26.71-8.55,37.98-17.24c3.34-7.48,2.73-17.83,1.02-17.04-1.78.82-34,26.83-42.36,33.62Z" style="fill: #f0c09f;"/>
          <path d="m367.86,70.04l8.01-.09c2.32-.25,5.16-.58,8.37-.99,3.26-1.21,7.1-2.7,11.03-4.38-8.61-1.65-15.59-3.65-18.3-4.46-4.5,4.88-7.92,8.61-9.11,9.92Z" style="fill: #d3905f; mix-blend-mode: multiply; opacity: .4;"/>
          <path d="m375.03,71.39c12.24-29.15,28.91-64.93,25.32-70.38-3.59-5.45-22.85,12.39-31.63,22.91-8.78,10.52-3.83,51.49-3.83,51.49l10.14-4.02Z" style="fill: #d3905f;"/>
          <path d="m372.56,71.33s24.43-61.73,23.38-63.68-14.32,12.04-22.09,26.71c-7.78,14.67-4.47,37.86-4.47,37.86l3.18-.89Z" style="fill: #f0c09f;"/>
          <path d="m321.83,128.11c-33.57,19.3,21.4,50.35,40.7,11.33,10.4-21.02,23.04-22.42,26.52-25.35.53-.44.82-.66.82-.66,0,0,.49,1.01,1.42,2.66,3.66,6.46,14.16,22.75,28.44,25.6,17.09,3.41,30.5-10.72,36.63-21.81,2.11-3.8,3.36-7.26,3.61-9.52.41-3.74-6.46-10.34-16.7-17.29-22.56-15.31-61.5-32.29-75.07-23.9-15.68,9.67-10.87,38.53-46.37,58.95Z" style="fill: #d3905f;"/>
          <path d="m443.28,93.07c-1.22,5.36-3.31,18.31-.44,21.22,1.96,1.98,8.59,4.17,13.54,5.59,2.11-3.8,3.36-7.26,3.61-9.52.41-3.74-6.46-10.34-16.7-17.29Z" style="fill: #64452e;"/>
          <g>
            <path d="m374.1,86.24c-.38,5.21,3.55,9.74,8.76,10.12,5.21.38,9.74-3.55,10.12-8.76.38-5.21-3.55-9.74-8.76-10.12-5.21-.38-9.74,3.55-10.12,8.76Z" style="fill: #bd764f;"/>
            <path d="m375.49,86.34c-.32,4.44,3.02,8.3,7.46,8.62,4.44.32,8.3-3.02,8.62-7.46s-3.02-8.3-7.46-8.62c-4.44-.32-8.3,3.02-8.62,7.46Z" style="fill: #64452e;"/>
            <path d="m375.43,87.25c-.28,3.94,3.09,7.38,7.53,7.7,4.44.32,8.27-2.61,8.55-6.55.28-3.94-3.09-7.38-7.53-7.7-4.44-.32-8.27,2.61-8.55,6.55Z" style="fill: #fff;"/>
            <path d="m383.06,86.61c-.16,2.24,1.53,4.19,3.77,4.35s4.19-1.53,4.35-3.77-1.53-4.19-3.77-4.35c-2.24-.16-4.19,1.53-4.35,3.77Z" style="fill: #64452e;"/>
            <path d="m383.14,84c-.21.77.25,1.57,1.02,1.77.77.21,1.57-.25,1.77-1.02.21-.77-.25-1.57-1.02-1.77-.77-.21-1.57.25-1.77,1.02Z" style="fill: #fff;"/>
          </g>
          <path d="m393.74,91.47c-11.33-7.37-19.68-2.92-22.12-.43-2.43,2.49,2.63,7.88,12.75,8.86,10.12.98,15.09-4.72,9.37-8.44Z" style="fill: #d3905f;"/>
          <path d="m382.57,101.42l.85.93c.07-.05.9-.78,2.35-1.05.17,1.28,1.01,6.95,3.29,12.78.53-.44.82-.66.82-.66,0,0,.49,1.01,1.42,2.66-2.97-6.38-4.05-13.4-4.26-14.87.81.02,1.73.21,2.78.66l.5-1.17c-4.72-2.03-7.62.59-7.75.71Z" style="fill: #bd764f;"/>
          <path d="m456.09,108.65c.47,2.13-10.79-1.53-11.73-2.2s-.67-9.42-.05-10.66c.61-1.23,11.03,9.43,11.78,12.86Z" style="fill: #64452e; mix-blend-mode: screen; opacity: .5;"/>
          <path d="m390.49,74.55c-5.26-3.55-15.4.59-15.4.59,0,0,9.33-10.45,15.4-.59Z" style="fill: #64452e;"/>
        </g>
        <path d="m0,286.3c-.51,2.54,25.73-.76,49.04-6,15.19-3.41,29.15-7.65,33.62-11.63,11.32-10.07,30.21-55.38,47-72.17,16.78-16.78,26.01-13.43,28.11-8.39,2.09,5.05-10.92,34.84-17.63,44.49-6.72,9.65-49.94,34.4-54.12,37.77-2.42,1.93-19.34,25.62-33.25,45.35-10.21,14.48-18.78,26.82-18.78,26.82,0,0,20.14,1.26,27.27-5.88,2.64-2.64,6.51-10.13,10.77-19.03,7.22-15.09,15.59-34.21,21.13-40.54,8.81-10.07,62.2-19.58,62.2-19.58,0,0-2.94,6.71,8.38-2.94-3.77,10.07,5.81,3.58,12.12-.42,7.09-4.46,31.01-26.99,31.01-26.99,0,0,60.83,17.61,86.85,9.23,22.74-7.34,52.86-66.93,63.15-87.7,1.5-2.99,2.56-5.19,3.14-6.29,4.62-8.81-25.17-21.37-38.18-14.27-11.46,6.25-24.64,8.67-38.27,8.74-41.29.25-86.63-21-100.2-22.59-16.07-1.86-54.43,16.56-76.57,43.43-2.71,3.31-5.2,6.73-7.36,10.27-19.72,32.31-34.82,85.6-43.22,94.41C47.84,271.19.84,282.1,0,286.3Z" style="fill: #d3905f;"/>
        <path d="m206.87,227.14s60.83,17.61,86.85,9.23c22.74-7.34,52.86-66.93,63.15-87.7-7.47-9.57-29.14,7.74-53.08,35.67-25.17,29.37-85.6,31.46-85.6,31.46l-11.32,11.34Z" style="fill: #f0c09f;"/>
        <path d="m290.62,147.01c-20.16,12.29-30.32,39.62-29.59,41.8s4.84,1.21,4.84,1.21l-.24,5.8,15.23,2.42-9.43,3.14s1.45,12.57,4.35,17.41c10.16-.24,28.53-13.3,28.53-13.3l-3.63-5.08-20.55-9.19s-7.01-3.14-7.25-10.4c-.24-7.25,18.14-29.99,18.14-29.99l-.4-3.83Z" style="fill: #d3905f; mix-blend-mode: multiply; opacity: .4;"/>
        <path d="m49.05,280.3c15.19-3.41,29.15-7.65,33.62-11.63,11.32-10.07,30.21-55.38,47-72.17,16.78-16.78,26.01-13.43,28.11-8.39,1.79-27.91-34.01-5.22-47.63,23.52-13.61,28.74-22.18,46.38-30.75,52.93-4.87,3.73-19.03,10.55-30.35,15.74Z" style="fill: #f0c09f;"/>
        <path d="m245.52,219.04c1.07,15.56,15.56,18.96,15.56,18.96,0,0-18.78,1.79-15.56-18.96Z" style="fill: #bd7d67;"/>
        <g>
          <path d="m266.47,187.03c1.75,1.56,5.58.88,5.58.88,0,0-2.74,2.53-2.31,4.37,5.94-1.27,20.78,1.35,29.19,3.04,3.43.7,5.78,1.24,6.02,1.29l-20.47,3.67s1.22,15.76,15.29,19.61c11.38-8,18.01-25.61,10.76-26.54-1.79-.23-4.45-1.05-7.47-2.15-.06-.03-.12-.04-.19-.07-9.19-3.38-21.49-9.32-21.49-9.32,0,0,15.87-17.24,34.03-28.95,0,0-7.11-21.76-24.56-6.57-17.45,15.21-26.15,39.18-24.38,40.75Z" style="fill: #d3905f;"/>
          <path d="m284.49,200.28s.23,3.03,1.68,6.76c.19.46.39.97.63,1.46,1.26,2.74,3.19,5.69,6.16,8h0c.39.32.8.61,1.24.9,1.58,1.04,3.44,1.9,5.58,2.49,11.38-8,18.01-25.61,10.76-26.54-1.79-.23-4.45-1.05-7.47-2.15-2.9,1.55-3.85,3.12-4.13,4.12,3.43.7,5.78,1.24,6.02,1.29l-20.47,3.67Z" style="fill: #64452e;"/>
          <path d="m286.77,207.16c.18.44.37.92.59,1.39,3.43.75,8.5.58,16.1-3.89l-.62-1.04c-7.92,4.66-12.89,4.42-16.07,3.54Z" style="fill: #64452e; mix-blend-mode: multiply; opacity: .5;"/>
          <path d="m292.96,216.51c.39.31.8.61,1.24.89,3.71-1.41,8.44-4.06,11.79-7.31l-.88-.91c-3.86,3.73-8.81,6.19-12.15,7.33Z" style="fill: #64452e; mix-blend-mode: multiply; opacity: .5;"/>
          <path d="m277.72,182.19s17.43,8.89,25.16,8.93c-9.19-3.38-21.49-9.32-21.49-9.32,0,0,15.87-17.24,34.03-28.95-18.24,7.99-37.69,29.34-37.69,29.34Z" style="fill: #d3905f; mix-blend-mode: screen; opacity: .3;"/>
        </g>
        <path d="m33.99,342.53s20.14,1.26,27.27-5.88c2.64-2.64,6.51-10.13,10.77-19.03-4.15-3.91-12.68-3.22-19.25-1.9-7.08,10.04-13.37,19.06-16.56,23.64-.36.51-.66.95-.94,1.34-.82,1.18-1.28,1.84-1.28,1.84Z" style="fill: #64452e;"/>
        <path d="m35.27,340.69c6.89-.28,21.14-2.28,25.73-13.51l-1.18-.47c-4.06,9.92-16.7,12.16-23.61,12.63-.36.51-.66.95-.94,1.34Z" style="fill: #64452e; mix-blend-mode: multiply; opacity: .5;"/>
        <path d="m106.8,157.7c19.31-15.53,61.05-39.54,73.32-37.31,14.09,2.56,22.64,10.25,22.64,10.25,0,0-8.97-2.56-5.55.85,2.85,2.87,52.83,11.39,86.36,5.36-41.29.25-86.63-21-100.2-22.59-16.07-1.86-54.43,16.56-76.57,43.43Z" style="fill: #d3905f; mix-blend-mode: screen; opacity: .3;"/>
      </g>
    </g>
  </g>
</svg>