<?xml version="1.0" encoding="UTF-8"?>
<svg xmlns="http://www.w3.org/2000/svg" viewBox="0 0 437.61 468">
  <g style="isolation: isolate;">
    <g id="uuid-6cd03644-e623-4678-9a07-8373642c725f" data-name="Layer 1">
      <g>
        <path d="m.43,324.93v.14c1.54,46.98,7.6,109.61,21.59,125.15,15.23,16.94,51.39,18.36,99.16,17.64h.07c21.04-.32,44.33-1.04,69.08-1.04,4.24,0,8.31-.17,12.22-.53,70.78-6.26,88.45-67.65,82.91-127.29-4.02-43.22-33.36-96.56-52.76-130.01-8.84-15.24-15.64-26.36-17.01-30.49-4.38-13.17-45.37-25.87-40.5-1.23,11.31,57.06,1.97,79.78-32.68,115.87-34.63,36.1-39.02,104.87-39.02,104.87,0,0-37.57,9.27-46.83,4.88-9.27-4.38-31.22-110.73-31.72-123.42-.48-12.68,21.47-50.25,19.02-53.65-2.43-3.42-38.53,32.2-42.45,45.85-1.42,4.94-2,26.55-1.09,53.26Z" style="fill: #d3905f;"/>
        <g>
          <path d="m177.7,85.18l6.19-.84,4.57-.62s1.62-1.2,4.26-3.27c1.6-1.25,3.57-2.82,5.79-4.62,3.63-2.96,7.9-6.54,12.17-10.4.5-.46.99-.9,1.49-1.36,6.77-6.21,13.34-13.01,17.27-18.9,2.33-3.51,3.72-6.7,3.62-9.27-.54-14.3-11.28-36.87-15.11-35.86-2.7.74-21.69,42.96-32.59,67.66-3.62,8.19-6.36,14.45-7.32,16.64-.22.55-.36.85-.36.85Z" style="fill: #d3905f;"/>
          <path d="m183.89,84.34l4.57-.62s30.37-22.55,40.99-38.56c1.01-11-4.28-23.95-6.12-22.2-1.92,1.82-31.72,49.08-39.44,61.38Z" style="fill: #f0c09f;"/>
          <path d="m178.06,84.33l10.19-3.6c2.85-1.33,6.34-3,10.26-4.91,3.63-2.96,7.9-6.54,12.17-10.4-11.71,1.64-21.5,2.13-25.31,2.27-3.62,8.19-6.36,14.45-7.32,16.64Z" style="fill: #d3905f; mix-blend-mode: multiply; opacity: .4;"/>
          <path d="m154.77,5.86l.22,1.15s0,.03.02.03l1.15,5.75.65,3.3,1.56,7.75.63,3.22,1.57,7.87.63,3.15,1.59,7.97.62,3.1,1.61,8.08.62,3.06,1.63,8.14.62,3.06,1.63,8.19.62,3.08,2.29,11.48,19.81-10.56,5.39-2.87,4.29-2.29,4.98-2.65,3.3-1.76-1.23-1.51-8.14-10.03-3.95-4.89-7.19-8.83-3.2-3.95-6.79-8.37-2.65-3.27-6.48-7.99-2.36-2.91-6.06-7.46-2.31-2.82-5.05-6.23Z" style="fill: #ef5a57;"/>
          <g>
            <path d="m169.5,79.68l.62,3.08c6.35-.56,13.81-.46,22.1.92l5.39-2.87c-9.94-2-19.85-1.93-28.11-1.13Z" style="fill: #fee464;"/>
            <path d="m167.26,68.43l.62,3.06c10.21-1.16,23.61-.74,39.01,4.38l3.3-1.76-1.23-1.51c-14.35-5.58-29.96-5.53-41.69-4.17Z" style="fill: #fee464;"/>
            <path d="m165.02,57.22l.62,3.06c9.17-1.3,21.21-1.4,35.17,2.29l-3.95-4.89c-11.55-2.21-23.01-1.66-31.84-.46Z" style="fill: #fee464;"/>
            <path d="m162.79,46.05l.62,3.1c7-1.2,15.91-1.75,26.26-.29l-3.2-3.95c-8.83-.58-17.13.15-23.68,1.15Z" style="fill: #fee464;"/>
            <path d="m160.57,34.93l.63,3.15c5.05-1.03,11.29-1.74,18.48-1.54l-2.65-3.27c-6.21.17-11.87.87-16.46,1.66Z" style="fill: #fee464;"/>
            <path d="m158.36,23.84l.63,3.22c3.28-.77,7.17-1.42,11.55-1.78l-2.36-2.91c-3.68.39-7,.92-9.82,1.47Z" style="fill: #fee464;"/>
            <path d="m156.16,12.79l.65,3.3c1.61-.41,3.39-.82,5.32-1.18l-2.31-2.82c-1.32.22-2.55.46-3.66.7Z" style="fill: #fee464;"/>
          </g>
          <path d="m155.01,7.04l1.15,5.75.65,3.3,1.56,7.75.63,3.22,1.57,7.87.63,3.15,1.59,7.97.62,3.1,1.61,8.08.62,3.06,1.63,8.14.62,3.06,1.63,8.19.62,3.08,2.29,11.48,19.81-10.56,5.39-2.87,4.29-2.29c-30.17,5.29-40.65-55.52-46.89-71.48Z" style="fill: #c09169; mix-blend-mode: multiply;"/>
          <path d="m175.21,177.28c10.86,42.95,51.87,28.01,42.43,2.87-8.23-21.88,3.5-43.55,6.68-48.81.48-.79.76-1.2.76-1.2,0,0,1.06,1.08,2.97,2.78,7.49,6.65,27.99,22.87,47.47,20.29,23.31-3.09,34.27-26.97,37.27-43.81,1.04-5.78,1.13-10.74.46-13.73-1.11-4.95-12.75-10.39-28.86-14.8-35.48-9.73-92.59-14.43-106.27,2.19-15.81,19.19-13.79,51.25-2.91,94.22Z" style="fill: #d3905f;"/>
          <path d="m94.37,111.98s16.08,22.58,36.59,22.05c2.21-.05,4.48-.63,6.79-1.63,19.2-8.16,40.72-44.58,40.72-44.58l.65-3.35.39-2.09c-29.34,19.73-85.15,29.6-85.15,29.6Z" style="fill: #d3905f;"/>
          <path d="m107.61,116.4s9.19,17.18,30.14,16.01c19.2-8.16,40.72-44.58,40.72-44.58l.65-3.35c-30.59,26.42-71.51,31.92-71.51,31.92Z" style="fill: #f0c09f;"/>
          <path d="m284.38,80.87c.78,7.37,3.75,24.82,8.68,27.28,3.36,1.67,12.79,1.58,19.73,1.24,1.04-5.78,1.13-10.74.46-13.73-1.11-4.95-12.75-10.39-28.86-14.8Z" style="fill: #64452e;"/>
          <g>
            <path d="m193.07,102.29c1.79,6.82,8.77,10.9,15.6,9.1,6.82-1.79,10.9-8.77,9.1-15.6-1.79-6.82-8.77-10.9-15.6-9.1-6.82,1.79-10.9,8.77-9.1,15.6Z" style="fill: #bd764f;"/>
            <path d="m194.9,101.81c1.53,5.81,7.47,9.28,13.28,7.76,5.81-1.53,9.28-7.47,7.76-13.28-1.53-5.81-7.47-9.28-13.28-7.76-5.81,1.53-9.28,7.47-7.76,13.28Z" style="fill: #64452e;"/>
            <path d="m195.22,103.01c1.35,5.15,7.16,8.08,12.97,6.56,5.81-1.53,9.42-6.94,8.07-12.09-1.35-5.15-7.16-8.08-12.97-6.56-5.81,1.53-9.42,6.94-8.07,12.09Z" style="fill: #fff;"/>
            <path d="m199.65,100.59c.77,2.93,3.77,4.69,6.71,3.92,2.93-.77,4.69-3.77,3.92-6.71s-3.77-4.69-6.71-3.92c-2.93.77-4.69,3.77-3.92,6.71Z" style="fill: #64452e;"/>
            <path d="m198.61,97.21c.07,1.08,1,1.89,2.07,1.82s1.89-1,1.82-2.07-1-1.89-2.07-1.82-1.89,1-1.82,2.07Z" style="fill: #fff;"/>
          </g>
          <path d="m220.43,100.42c-17.68-4.47-26.4,4.85-28.42,9.09-2.02,4.24,6.79,8.92,20.14,5.76,13.35-3.16,17.21-12.6,8.29-14.85Z" style="fill: #d3905f;"/>
          <path d="m210.51,118l1.49.81c.06-.09.8-1.39,2.54-2.36.77,1.56,4.31,8.43,9.77,14.89.48-.79.76-1.2.76-1.2,0,0,1.06,1.08,2.97,2.78-6.58-6.85-11.01-15.34-11.92-17.13,1.04-.32,2.3-.49,3.83-.37l.13-1.71c-6.91-.53-9.48,4.07-9.58,4.28Z" style="fill: #bd764f;"/>
          <path d="m307.53,95.19c1.53,2.52-14.44,2.75-15.93,2.3-1.49-.45-4.96-11.74-4.71-13.58.25-1.84,18.19,7.24,20.64,11.28Z" style="fill: #64452e; mix-blend-mode: screen; opacity: .5;"/>
          <path d="m208.91,80.23c-8.27-2.24-19.4,7.47-19.4,7.47,0,0,7.35-17.41,19.4-7.47Z" style="fill: #64452e;"/>
        </g>
        <path d="m.43,325.07c1.54,46.98,7.6,109.61,21.59,125.15,21.95,24.4,87.32,16.6,168.31,16.6s100.97-64.89,95.12-127.82c-4.02-43.22-33.36-96.56-52.76-130.01-31.82-32.93-27.68-25.49-14.08,50.49,14.15,79.02,6.35,149.77-17.55,177.57-23.9,27.82-134.16,28.79-161.97,16.6C17.37,444.11,4.87,370.17.43,325.07Z" style="fill: #f0c09f;"/>
        <path d="m233.59,381.46c12.46-.86,19.42-6.3,19.42-6.3,0,0-.79,10.8-1.52,11.31-4.35,3.05-17.9-5.01-17.9-5.01Z" style="fill: #d3905f; mix-blend-mode: multiply; opacity: .3;"/>
        <g>
          <path d="m306.59,273.7s30.04-34.62,30.04-41.48-11.44-30.04-19.74-26.03c-8.3,4.01-18.6,65.8-18.6,65.8l3.72.86s10.87-55.79,17.16-58.93c6.29-3.15,15.16,16.59,14.59,18.02-.57,1.43-29.75,41.77-29.75,41.77h2.57Z" style="fill: #60c9e0;"/>
          <path d="m304.01,273.7s-27.46-48.92-34.33-50.64c-6.87-1.72-7.15,33.76-4,38.91,3.15,5.15,31.18,11.44,31.18,11.44l2-3.15s-19.74-8.01-24.89-13.73c-5.15-5.72-4.86-26.03-3.43-28.04,1.43-2,31.75,46.34,31.75,46.34l1.72-1.14Z" style="fill: #60c9e0;"/>
          <path d="m248.23,384.69l33.65.1,5.3.02,7.72.03,4.38.02,9.03.02,6.54.03,12.69.03,1.98.02h2.77l4.89.02-.12-1.27-.15-1.71-.96-10.56-.87-9.77-.6-6.52v-.02l-3.59-39.78-.24-2.58-.09-1.03-.45-4.93-.02-.12-3.22-35.59s-3.18-.02-8.08-.02c-1.33-.02-2.81-.02-4.36-.02-1.76-.02-3.66-.02-5.63-.02h-8.91c-.5,0-.98,0-1.47.02-.03-.02-.07-.02-.1,0h-.02c-3.28,0-6.55.02-9.68.02-.32.02-.63.02-.94.02h-.02c-10.57.07-19.14.24-19.14.56,0,.6-9.68,54.23-15.67,87.39-2.69,14.87-4.64,25.61-4.64,25.61Z" style="fill: #2ec0ce;"/>
          <polygon points="308.3 388.99 308.3 387.7 308.32 384.88 308.35 369.77 308.49 309.3 308.59 271.37 308.59 268.27 307.92 268.25 302.96 268.1 300.77 268.05 298.98 267.98 297.95 267.96 293.21 267.83 288.85 267.69 288.64 271.11 288.63 271.37 282.95 366.8 281.88 384.8 281.7 387.84 308.3 388.99" style="fill: #60c9e0;"/>
        </g>
        <g>
          <path d="m383.39,288.16s5.44-68.66-11.16-68.95c-16.59-.29,6.29,68.66,6.29,68.66,0,0-12.3-64.37-6.29-64.65,6.01-.29,8.58,64.94,8.58,64.94h2.57Z" style="fill: #aad155;"/>
          <path d="m327.48,385.27s.75-.1,2.05-.31c1.69-.26,4.36-.68,7.54-1.25,2.72-.5,5.85-1.09,9.08-1.8,1.35-.29,2.72-.6,4.09-.92l.05-.02c2.04-.48,4.07-1.01,6.06-1.56,1.03-.29,2.04-.6,3.03-.91,5.99-1.86,11.12-4.07,13.43-6.55l37.91-79.09-21.59-6.31h-.02l-1.03-.31-1.51-.43-2.77-.82-.21-.05-.34-.1-2.65-.77-2.72-.8-.24-.07-.67-.19-24.05-7.03-7.65,32.85-10.8,46.31v.02l-6.42,27.51-.53,2.28-.07.32Z" style="fill: #74c046;"/>
          <polygon points="389.55 282 354.65 384.41 344.35 387.56 378.68 280.85 389.55 282" style="fill: #aad155;"/>
          <path d="m380.82,287.31s.99-.05,2.65-.19c1.18-.1,2.72-.24,4.47-.43.39-.03.77-.09,1.18-.14h.02c7.24-.86,17.54-2.57,23.71-5.83,10.3-5.42,28.62-20.58,24.04-26.31-4.05-5.05-33.46,12.63-50.16,27.29-1.08.94-2.12,1.86-3.08,2.79-.12.12-.26.24-.38.36-.87.84-1.68,1.66-2.43,2.45l-.02.02Zm.03-.02c.21-.15,1.18-.92,2.74-2.12.07-.05.14-.1.22-.17,1.13-.87,2.57-1.95,4.21-3.17,13.14-9.8,39.9-28.57,41.42-21.13,2.26,11.02-26.79,20.62-41.03,24.62-.65.17-1.25.34-1.83.5-1.2.32-2.24.6-3.1.82-1.51.39-2.45.62-2.63.65Z" style="fill: #aad155;"/>
        </g>
        <path d="m287.03,385.79l12.25-.92,9.03-.68,19.76-1.51,8.85-.67,9.44-.72,3.88-.29.05-.02,5.66-.43,2.75-.21c.07-.1.31-.75.67-1.83,3.61-10.78,23.24-64.07,23.24-64.07l-37.33-5.62-10.8,46.31-3.59-39.78-.24-2.58-.09-1.03-.45-4.93-21.62-2.86-8.45-1.11-12.87,81.95-.15.97Z" style="fill: #d3905f; mix-blend-mode: multiply; opacity: .4;"/>
        <g>
          <path d="m339.2,317.18s24.32-23.74,25.75-31.75c1.43-8.01-11.44-27.75-13.16-30.04-1.72-2.29-17.74,60.93-17.74,60.93,0,0,14.3-46.06,18.02-48.63,3.72-2.57,9.73,13.45,10.01,16.31.29,2.86-24.6,32.04-24.6,32.04l1.72,1.14Z" style="fill: #fdba34;"/>
          <path d="m338.91,314.61s-7.15-64.08-9.44-65.8c-2.29-1.72-16.88,21.17-17.16,30.32-.29,9.15,21.74,37.19,21.74,37.19l1.14-1.43s-17.74-27.75-18.6-34.33c-.86-6.58,10.01-25.75,11.44-25.75s9.44,61.22,9.44,61.22l1.43-1.43Z" style="fill: #fdba34;"/>
          <polygon points="294.58 387.57 308.3 387.7 314.17 387.77 331.94 387.96 341.2 388.05 348.93 388.13 349.63 385.94 350.47 383.39 351.33 380.74 354.17 371.93 371.24 319.18 366.59 318.45 343.89 314.87 341.85 314.55 340.75 314.38 339.11 314.12 338.84 314.09 337.2 313.83 334.95 313.47 334.78 313.44 334.22 313.35 331.45 312.92 330.66 312.79 308.49 309.3 304.01 308.59 296.84 368.64 294.9 384.85 294.58 387.57" style="fill: #f36b35;"/>
          <path d="m313.18,391.57c-.58.86,18.31.27,18.31.27l.46-3.88.36-2.99.05-.44,1.57-13.16,1.16-9.68,2.22-18.67,3.25-27.18.19-1.45.29-2.57.15-1.21-2.75-.09-1.69-.05-.84-.02-.36-.02-3.22-.09-.29-.02s-.21.94-.6,2.6c-.15.7-.34,1.52-.55,2.45-2.46,10.78-8.35,36.56-12.68,55.16-1.32,5.68-2.5,10.68-3.37,14.39-.26,1.06-.5,2.02-.68,2.86-.56,2.31-.92,3.68-.99,3.8Z" style="fill: #fdba34;"/>
        </g>
        <path d="m281.88,384.8l-.19,3.05,26.6,1.15v-1.28l5.87.07c-.56,2.31-.92,3.68-.99,3.8-.58.86,18.31.27,18.31.27l.46-3.88,9.26.09c1.2-.58,2.38-1.18,3.56-1.78,1.93-.98,3.85-1.93,5.71-2.87,1.88-.96,3.71-1.88,5.47-2.79,1.85-.94,3.61-1.83,5.25-2.67,6.62-3.39,11.22-5.77,11.6-5.95l.02-.02s-5.35.1-13.93.03c-1.47-.02-3.05-.03-4.72-.07-1.51-.02-3.1-.03-4.76-.09-4.14-.07-8.66-.21-13.45-.39-.67-.02-1.35-.05-2.04-.09-1.04-.03-2.12-.09-3.18-.12-4.05-.19-8.26-.43-12.52-.72-3.27-.21-6.55-.46-9.87-.75-3.85-.31-7.7-.68-11.51-1.13-4.74-.53-9.39-1.15-13.89-1.85-11.7-1.85-22.31-4.35-30.08-7.72-2.69,14.87-4.64,25.61-4.64,25.61l33.65.1Z" style="fill: #d3905f; mix-blend-mode: multiply; opacity: .4;"/>
        <path d="m121.25,467.86c21.04-.32,44.33-1.04,69.08-1.04,4.24,0,8.31-.17,12.22-.53-8.55-2.62-14.18-4.48-14.18-4.84,0-1.45,8.16-40.5,3.35-45.37-4.81-4.88-13.28-3.58-13.28-3.58,5.34,11.45.17,38.66-6.66,44.53-6.18,5.32-43.4,9.97-50.54,10.83Z" style="fill: #d3905f; mix-blend-mode: multiply; opacity: .3;"/>
        <path d="m261.32,328.83l-11.51-14.92s-59.24,23.01-65.63,20.88c-6.39-2.13-13.64-49.01-11.51-58.38,10.23,2.98,20.46,30.68,20.46,30.68l60.94-5.11,9.8,16.19-2.56,10.65Z" style="fill: #d3905f; mix-blend-mode: multiply; opacity: .3;"/>
        <path d="m240.36,459.2l55.16,4.52c17.74-2.45,31.41-9.2,41.97-18.02,32.49-27.12,35.33-73.74,35.33-73.74,0,0-19.06,5.77-72.09,8.33-18.19.89-40.36,1.4-67.13,1.16-8.13,18.99,6.77,77.74,6.77,77.74Z" style="fill: #f0c09f;"/>
        <path d="m178.45,412.49c13.99,19.18,4.02,55.5,4.02,55.5h125.16s-18.77-29.26-28.52-30.78c-1.35-.21-3.39-.19-5.97.05h-.03c-4.16.38-9.72,1.27-16.05,2.62-18.05,3.78-42.46,11-58.92,19.04,28.37-93,9.92-145.04-31.19-125.87-9.07,4.23-19.26,11.92-30.28,23.44,0,0,27.8,36.82,41.78,56Z" style="fill: #d3905f;"/>
        <path d="m204.47,359c8.3,31.22-11.21,104.89-11.21,104.89,0,0,51.53-22.33,79.84-26.62-4.16.38-9.72,1.27-16.05,2.62-18.05,3.78-42.46,11-58.92,19.04,28.37-93,9.92-145.04-31.19-125.87,12.8-2.91,30.32-1.2,37.52,25.94Z" style="fill: #f0c09f; mix-blend-mode: screen; opacity: .3;"/>
        <path d="m335.32,444.91c30.7-25.17,33.75-68.89,33.75-68.89,0,0-17.93,5.25-67.71,7.22-13.58,20.15-27.02,93.28,33.96,61.67Z" style="fill: #f0c09f; mix-blend-mode: screen; opacity: .2;"/>
        <path d="m186.59,321.73l6.57-4.14s-.68,4.84,1.04,5.53c3.97-.84,38.49-12.42,50.74-16.54,2.69-.91,4.29-1.45,4.29-1.45,0,0,4.16,9.7,19.73,19.74,1.45-.87,2.79-1.93,4-3.15-7.13-3.58-13.17-9.79-12.15-11.26,1.09-1.56,9.03-1.45,17.31,4.41,1.2-2.07,2.19-4.24,3.03-6.4-6.59-1.08-17.59-3.15-17.35-4.88.34-2.31,5.46-4.94,20.19-4.53.94-4.17,1.23-7.1,1.23-7.1,0,0-19.38,5.54-30.11,6.24-1.04-7.97,3.46-20.77,3.46-20.77,0,0-3.8-3.11-7.61-.7,2.07,5.89-1.04,22.16-1.04,22.16l-5.39-.12-42.72-.92s-3.82-20.07,4.5-44.29c-13.84-30.81-33.58-.7-33.58,19.38s13.86,48.79,13.86,48.79Z" style="fill: #d3905f;"/>
        <path d="m244.95,306.58c2.69-.91,4.29-1.45,4.29-1.45,0,0,4.16,9.7,19.73,19.74,1.45-.87,2.79-1.93,4-3.15-7.13-3.58-13.17-9.79-12.15-11.26,1.09-1.56,9.03-1.45,17.31,4.41,1.2-2.07,2.19-4.24,3.03-6.4-6.59-1.08-17.59-3.15-17.35-4.88.34-2.31,5.46-4.94,20.19-4.53.94-4.17,1.23-7.1,1.23-7.1,0,0-19.38,5.54-30.11,6.24-1.04-7.97,3.46-20.77,3.46-20.77,0,0-3.8-3.11-7.61-.7,2.07,5.89-1.04,22.16-1.04,22.16l-5.39-.12c-.15,2.53.05,5.27.41,7.8Z" style="fill: #64452e;"/>
        <path d="m198.24,302.83l51.68-3.94-5.39-.12-42.72-.92s-3.82-20.07,4.5-44.29c-11.53,19.76-8.07,49.27-8.07,49.27Z" style="fill: #f0c09f; mix-blend-mode: screen; opacity: .3;"/>
        <path d="m248.04,467.99h59.59s-18.77-29.26-28.52-30.78c-3.54-.55-11.77.5-22.05,2.67-8.02,7.85-9.14,20.74-9.02,28.11Z" style="fill: #64452e;"/>
        <path d="m275.26,447.55c10.54,6.21,13.99,15.09,15.14,20.44h1.73c-1.15-5.68-4.72-15.29-16-21.92l-.87,1.47Z" style="fill: #64452e; mix-blend-mode: multiply; opacity: .3;"/>
      </g>
    </g>
  </g>
</svg>