<?xml version="1.0" encoding="UTF-8"?>
<svg xmlns="http://www.w3.org/2000/svg" viewBox="0 0 481 265.61">
  <g style="isolation: isolate;">
    <g id="uuid-c991e72c-7917-4fcf-8d72-8855948532f8" data-name="Layer 1">
      <g>
        <g>
          <path d="m0,265.13h167.82c-4.85-18.54-47.3-122.08-68.08-163.21-4.58-9.11-8.12-15.14-9.95-16.54-10.12-7.71-46.74,3.45-46.74,3.45l-1.71,7.45v.1s-3.46,15.07-3.46,15.07l-1.5,6.6-9.12,39.89s-16.19,18.47-18.95,26.72c-.48,1.44-1.06,4.85-1.65,9.49C3.97,214.34.57,257.89.07,264.32c-.06.52-.07.81-.07.81Z" style="fill: #dbb176;"/>
          <path d="m125.3,265.13c-3.52-18.97-29.23-73.71-45.81-83.87-11.3-6.93-63.66,5-72.85,12.89,30.19,30.13,118.66,70.98,118.66,70.98Z" style="fill: #ebc083;"/>
          <path d="m0,265.13h125.3-.01c-3.82-9.95-12.1-29.64-21.82-47.3-3.87-7.06-7.97-13.79-12.12-19.46-2.28-3.11-4.55-5.9-6.8-8.23-2.43-2.52-4.88-4.41-7.15-5.84-8.92-5.59-57.28,4.26-70.75,9.84C3.97,214.34.57,257.89.07,264.32c-.06.52-.07.81-.07.81Z" style="fill: #dbb176;"/>
          <path d="m19.29,265.13h5.84c.35-1.22.71-2.45,1.07-3.7,4.64-15.72,10.39-33.92,14.35-41.8.78-1.54,1.47-2.69,2.09-3.34,5.23-5.56,35.21-14.45,48.71-17.91-2.28-3.11-4.55-5.9-6.8-8.23-10.65,4.21-39.89,16.34-46.65,25.35-.35.48-.74,1.05-1.12,1.71-4.58,7.76-11.27,27.74-16.57,44.88-.31,1.03-.62,2.04-.93,3.04Z" style="fill: #d5ac74;"/>
          <path d="m36.37,118.05c15.36,5.88,49.2,19.23,54.07,24.39,1.29,1.37,4.11,7.61,7.82,16.67,11.62,28.45,31.77,84.75,39.34,106.02h8.31c-9.64-25.15-37.47-96.92-49.23-118.46-1.63-2.98-2.96-4.99-3.87-5.8-6.91-6.02-39.67-22.1-54.93-29.42l-1.5,6.6Z" style="fill: #ebc083;"/>
          <path d="m41.31,96.38s.04-.06.07-.08c.18-.21.37-.42.57-.65-.04.24-.08.48-.1.75-.42,5.19,3.92,15.99,12.6,5.84,2.11,5.09,6.25,2.35,9.09-.45,1.71-1.7,2.94-3.41,2.94-3.41,0,0,2.64,6.36,4.57-.23,1.44,4.31,17.32,14.76,20.69,1.36,1.77,3.56,7.83,8.27,8,2.42.03-.49,0-1.07-.07-1.74,0,0-.72-13.16-11.54-17.94-10.83-4.76-37.77-4.31-47.14,5.68-2.35,2.49-4.11,4.99-5.29,7.13-3.45,6.29-1.8,9.61,5.61,1.33Z" style="fill: #8d8131;"/>
        </g>
        <path d="m0,265.13h167.82c-4.85-18.54-47.3-122.08-68.08-163.21.03-.49,0-1.07-.07-1.74,0,0-.72-13.16-11.54-17.94-.08-.03-.16-.07-.24-.1-6.77-2.87-19.48-3.78-30.41-1.72-6.8,1.29-12.91,3.7-16.49,7.51-.28.3-.57.61-.82.9-1.95,2.19-3.44,4.34-4.47,6.22,1.75.38,3.65.79,5.63,1.23.01,0,.03.01.06.01.16.03.31.07.47.1,6.72,1.51,14.44,3.35,21.69,5.39,10.63,3.01,20.26,6.46,24.31,9.97,3.32,2.9,6.31,16.87,8.82,34.92.55,3.97,1.07,8.14,1.58,12.44,2.02,17.25,3.66,36.51,4.82,52.92.14,1.98.27,3.92.4,5.8,1.26,18.97,1.8,32.96,1.46,33.41-.18.24-2.22.66-5.61,1.2-13.25,2.11-47.28,6.07-73.11,8.98-2.05.23-4.04.45-5.98.66-8.33.93-15.43,1.72-20.15,2.23-.06.52-.07.81-.07.81Z" style="fill: #dbb176; mix-blend-mode: multiply; opacity: .3;"/>
        <path d="m33.75,85.65c1.44,1.24,3.68,2.29,6.42,3.18,16.19,5.23,50.52,4.89,50.52,4.89,0,0,58.28,121.47,66.34,171.41h10.79c-4.85-18.54-47.3-122.08-68.08-163.21.03-.49,0-1.07-.07-1.74,0,0-.72-13.16-11.54-17.94-.08-.03-.16-.07-.24-.1-8.96-1.03-20.33-1.68-30.41-1.72-15.67-.06-28.21,1.39-23.73,5.23Z" style="fill: #d3905f; mix-blend-mode: multiply; opacity: .5;"/>
        <path d="m110.29,127.56c.1.33.2.65.31.99,9.06,29.16,37.6,89.3,52.95,108.26,15.52,19.19,37.77,28.32,70.03,28.32h216.5c19.48,0,32.58-40.81,30.75-75.52-.41-7.85-1.24-15.02-2.53-21.45-4.34-22.01-13.81-35.29-29.14-36.71-19.79-1.82-32.22,24.59-25.87,42.02,1.15,3.14,7.37-19.14,17.42-19.94.68-.06,1.36-.01,2.06.14,11.27,2.45,6.39,45.06-3.66,59.99-10.04,14.92-50.53,16.44-67.58,7.3-.33-.17-.65-.37-.99-.57-8.54-5.15-19.27-18.64-31.33-31.91-.34-.37-.68-.75-1.02-1.12-11.75-12.81-24.76-25.24-38.22-29.42-8.09-2.53-19.36-2.84-31.77-2.16-28.04,1.51-61.94,8.03-78.36,5.44-1.77-.27-3.34-.65-4.67-1.16-1.22-.47-2.45-1-3.68-1.58-10.6-5.08-21.27-14.46-29.48-23.26-4.44-4.75-8.16-9.32-10.76-12.94-.79-1.1-1.48-2.11-2.06-3.01-5.51-8.67-26.85-8.88-29.3,2.15-.4,1.75-.31,3.79.4,6.12Z" style="fill: #d3905f;"/>
        <g>
          <path d="m93.57,76.49l3.63-3.67,2.68-2.71s.46-1.6,1.14-4.29c.42-1.63.92-3.65,1.46-5.95.89-3.77,1.87-8.26,2.73-12.95.1-.55.19-1.09.29-1.64,1.3-7.48,2.18-15.25,1.78-21.08-.24-3.47-.94-6.26-2.3-7.9C97.41,7.21,78.99-2.16,77,.44c-1.39,1.84,7.46,39.07,12.78,60.74,1.76,7.19,3.12,12.67,3.6,14.58.13.47.19.73.19.73Z" style="fill: #d3905f;"/>
          <path d="m97.2,72.82l2.68-2.71s8.52-30.08,7.39-45.92c-4.89-7.71-14.88-13.52-15.2-11.45-.34,2.16,3.97,48.13,5.13,60.08Z" style="fill: #f0c09f;"/>
          <path d="m93.38,75.76l4.86-7.5c1.19-2.31,2.64-5.16,4.24-8.39.89-3.77,1.87-8.26,2.73-12.95-6.84,6.98-13,12.24-15.43,14.25,1.76,7.19,3.12,12.67,3.6,14.58Z" style="fill: #d3905f; mix-blend-mode: multiply; opacity: .4;"/>
          <path d="m94.01,78.76c-31.9-14.99-70.99-35.21-77.23-31.47-6.24,3.74,12.74,26.03,24.06,36.29,11.31,10.26,57.18,6.65,57.18,6.65l-4.01-11.48Z" style="fill: #d3905f;"/>
          <path d="m93.83,81.51S26.19,51.44,23.97,52.52c-2.22,1.08,12.75,16.5,28.74,25.84,15.98,9.34,41.97,6.73,41.97,6.73l-.84-3.59Z" style="fill: #f0c09f;"/>
          <path d="m95.28,92.94c3.03,9.69,8.5,19.88,15.31,35.6,1.92,4.47,3.97,9.37,6.09,14.85,3.53,9.12,8.57,14.83,13.74,17.8,14.18,8.14,29.45-4.17,18.32-22.51-3.31-5.44-5.74-10.99-7.51-16.39-7.3-22.3-3.17-42.09-1.47-41.98,8.26.58,40.69,2.91,52.15-8.6,13.7-13.77,8.84-34.94,2.3-47.48-2.23-4.3-4.67-7.61-6.62-9.22-3.22-2.69-13.59-.38-26.36,4.86-28.14,11.52-67.91,37.24-68.49,55.02-.21,6.56.71,12.2,2.52,18.04Z" style="fill: #d3905f;"/>
          <path d="m161.26,19.88c4.23,4.43,14.97,14.36,19.44,13.49,3.05-.6,9.17-5.41,13.54-9.14-2.23-4.3-4.67-7.6-6.62-9.22-3.22-2.68-13.59-.38-26.36,4.86Z" style="fill: #64452e;"/>
          <path d="m183.63,17.59c2.27.88-8.07,9.08-9.27,9.54s-9.16-5.19-9.93-6.52c-.77-1.33,15.56-4.43,19.2-3.02Z" style="fill: #64452e; mix-blend-mode: screen; opacity: .5;"/>
          <path d="m113.9,53.28c-6.54,2.71-8.94,14.67-8.94,14.67,0,0-3.96-15.11,8.94-14.67Z" style="fill: #64452e;"/>
          <path d="m115.05,73.84c2.64,0,5.5-.88,7.15-2.75,1.36-1.55,2.43-4.36-.15-8.94l-1.23.69c1.72,3.06,1.83,5.59.32,7.32-2,2.29-6.46,2.81-9.12,1.75l-.52,1.31c1.02.41,2.26.62,3.56.62Z" style="fill: #64452e;"/>
        </g>
        <path d="m152.01,135.23c13.46,31.59,43.92,46.74,73.65,49.2,33.2,2.74,73.69-7,91.65,7.62,7.78,6.32,15.27,14.76,24.56,22.54,8.12,6.77,17.59,13.06,29.83,17.01,6.18,2.01,13.05,3.41,20.81,3.99,40.81,3.04,52.99-1.82,58.78-31.97,5.78-30.14,3.04-41.1-2.45-47.8-2.8-3.44-5.84-3.27-8.14-2.28.68-.06,1.36-.01,2.06.14,11.27,2.45,6.39,45.06-3.66,59.99-10.04,14.92-50.53,16.44-67.58,7.3-.33-.17-.65-.37-.99-.57-8.54-5.15-19.27-18.64-31.33-31.91-12.02-13.21-25.38-26.23-39.24-30.54-28.32-8.84-95.61,9.43-114.8,2.12-11.78-4.48-23.99-15.03-33.16-24.84Z" style="fill: #f0c09f;"/>
        <path d="m150.45,188.57c.34,10.04,40.49,39.12,59.54,40.51,4.14-3.82,3.11-9.35,3.11-9.35,0,0,10.38,3.11,14.89,1.03-4.51-5.19-31.86-46.38-35.53-56.85l-2.63-2.67c-1.77-.27-3.34-.65-4.67-1.16-1.22-.47-2.45-1-3.68-1.58.38,6.31,1.43,16.81,4.27,27.3-7.62-1.37-21.79-22.13-21.79-22.13,0,0-5.91,20.76-13.52,24.9Z" style="fill: #d3905f; mix-blend-mode: multiply; opacity: .3;"/>
        <path d="m95.28,92.94c3.03,9.69,8.5,19.88,15.31,35.6,9.06,29.16,37.6,89.3,52.95,108.26,15.52,19.19,37.77,28.32,70.03,28.32h216.5c19.48,0,32.58-40.81,30.75-75.52-.41-7.85-1.24-15.02-2.53-21.45.23,5.74.3,12.58.11,20.67-.79,35.12-19.55,63.85-19.55,63.85,0,0-19.55-11.58-25.54-11.98-5.98-.4-59.46,11.57-59.46,11.57l-2.16-20.67-1.17-11.2c-8.54-5.15-19.27-18.64-31.33-31.91.76,6.12,1.88,15.88,2.67,26.1,1.57,19.89,1.92,41.5-3.9,41.27-8.43-.31-88.9,8.3-137.48-7.65-23.68-7.78-32.78-24.41-37.29-30.65-8.29-11.47-20.76-33.75-32.76-56.37-7.39-13.94-14.61-28-20.54-39.76-8.58-16.98-14.52-29.16-14.52-29.16l-.08.66Z" style="fill: #d3905f; mix-blend-mode: multiply; opacity: .2;"/>
        <path d="m252.58,189.09l63.84,37.26s7.62-24.23,21.76-38.97c-11.75-12.81-24.76-25.24-38.22-29.42-8.09-2.53-19.36-2.84-31.77-2.16-5.53,14.25-15.61,33.3-15.61,33.3Z" style="fill: #d3905f; mix-blend-mode: multiply; opacity: .2;"/>
        <path d="m151.94,193.15c12.77,13.5,54.76,30.46,55.99,29.96,1.23-.5.99-7.86.99-7.86,0,0,6.14,3.93,7.85,2.46-5.64-7.41-17.65-36.97-22.35-48.84-1.22-3.08-1.95-4.96-1.95-4.96l30.7-4.91s-.59-.96-1.56-2.35c-.33-.49-.71-1.03-1.13-1.61-.68-.95-1.44-1.98-2.26-2.98-.54-.65-1.09-1.3-1.65-1.92-1.89-2.06-3.86-3.72-5.43-3.9-4.43-.49-26.28,9.83-26.28,9.83l2.71,12.92,6.62,31.53s-22.34-15.72-30.2-36.85c0,0-24.81,15.96-12.03,29.48Z" style="fill: #d3905f;"/>
        <path d="m184.84,156.06l2.71,12.92c2.01-.17,4.38-.24,6.86-.11-1.22-3.08-1.95-4.96-1.95-4.96l30.7-4.91s-.59-.96-1.56-2.35c-.33-.49-.71-1.03-1.13-1.61-.68-.95-1.44-1.98-2.26-2.98-.54-.65-1.09-1.3-1.65-1.92-1.89-2.06-3.86-3.72-5.43-3.9-4.43-.49-26.28,9.83-26.28,9.83Z" style="fill: #64452e;"/>
        <path d="m213.64,147.29c.31.33.64.68.99,1.05,2.09,2.21,4.86,4.84,7.95,6.91.41.27.82.54,1.23.78,3.72,2.28,7.8,3.56,11.64,2.23.89-1.68-.55-5.7-2.79-9.69-.24-.44-.49-.86-.75-1.29-1.07-1.78-2.28-3.51-3.45-4.96-.35-.42-.69-.83-1.03-1.2-1.31-1.44-2.56-2.47-3.53-2.76-3.92-1.16-11.81,7.23-10.25,8.92Z" style="fill: #64452e;"/>
        <g style="mix-blend-mode: multiply; opacity: .5;">
          <path d="m216.56,150.14c.57.62,1.12,1.27,1.65,1.92-8.99-2.87-15.2,1.33-15.27,1.39l-.82-1.16c.27-.2,5.92-4.04,14.44-2.15Z" style="fill: #64452e;"/>
          <path d="m220.47,155.04c.42.58.81,1.12,1.13,1.61-8.13-1.43-15.3,1.26-15.38,1.29l-.51-1.31c.31-.13,6.87-2.59,14.76-1.58Z" style="fill: #64452e;"/>
        </g>
        <g style="mix-blend-mode: multiply; opacity: .5;">
          <path d="m213.64,147.29c.31.33.64.68.99,1.05,1.71-1.12,6.8-4.16,13.83-6.01-.35-.42-.69-.83-1.03-1.2-7.21,2.01-12.24,5.13-13.79,6.16Z" style="fill: #64452e;"/>
          <path d="m231.91,147.29c.25.42.51.85.75,1.29-4.23,1.48-7.21,5.02-8.85,7.45-.41-.24-.82-.51-1.23-.78,1.68-2.57,4.78-6.31,9.33-7.96Z" style="fill: #64452e;"/>
        </g>
        <path d="m325.43,174.09c.23.35.48.69.76,1.03,11.01,13.52,39.19,90.49,39.19,90.49h81.23s-12.07-21.41-23.87-20.02c-1.46.17-3.36.52-5.58.99-15.82,3.37-47.66,13.28-47.66,13.28,0,0-3.93-82.54-22.62-107.53-3.38-4.54-7.25-7.18-11.69-7.08,0,0-19,15.55-9.76,28.84Z" style="fill: #d3905f;"/>
        <path d="m325.43,174.09c3.94-6.66,12.58-19.54,21.45-21.76-3.38-4.54-7.25-7.18-11.69-7.08,0,0-19,15.55-9.76,28.84Z" style="fill: #d3905f; mix-blend-mode: multiply; opacity: .4;"/>
        <path d="m318.78,225.17c.89-19.38,9.25-67.1,16.4-79.93,14.31-3.87,60.49,11.34,61.99,9.84.89-.89,17.16-25.34,29.89-44.54,8.33-12.56,15.14-22.86,15.14-22.86,0,0-20.88-4.77-27.74,0-2.38,1.65-4.88,6.5-7.51,13.11-4.98,12.48-10.38,31.22-16.05,46.25-20.28-3.28-64.67-28.34-64.67-28.34,0,0-1.19-3.58-3.28-2.39-.27.17-1.29.88-2.88,2.05.98-6.83-5.27.69-8.26,6.45-11.33,9.19-29.34,25.18-45.15,44.74-5.02,6.19-9.8,12.74-14.08,19.54-16.4,44.74,65.31,55.47,66.2,36.08Z" style="fill: #d3905f;"/>
        <path d="m406.95,100.79c10.02-.65,16.46,4.92,20.11,9.76,8.33-12.56,15.14-22.86,15.14-22.86,0,0-2.73-.62-6.53-1.19-.74-.11-1.51-.23-2.32-.33-2.63-.34-5.56-.59-8.38-.61h-.01c-.82,0-1.63.01-2.42.06h-.01c-3.25.17-6.18.76-8.06,2.06-2.38,1.65-4.88,6.5-7.51,13.11Z" style="fill: #64452e;"/>
        <g style="mix-blend-mode: multiply; opacity: .5;">
          <path d="m424.19,96.39l1.36.42c.01-.07,1.97-5.94,10.12-10.32-.74-.11-1.51-.23-2.32-.33-7.28,4.5-9.08,9.94-9.16,10.22Z" style="fill: #64452e;"/>
          <path d="m416.81,92.76l1.3.55s1.82-4.21,6.84-7.75c-.82,0-1.63.01-2.42.06h-.01c-4.13,3.42-5.63,6.94-5.71,7.14Z" style="fill: #64452e;"/>
        </g>
        <path d="m407.52,265.61h39.09s-12.07-21.41-23.87-20.02c-1.46.17-3.36.52-5.58.99-7.41,6.19-9.25,14.25-9.64,19.03Z" style="fill: #64452e;"/>
        <g style="mix-blend-mode: multiply; opacity: .5;">
          <path d="m426.86,252.29c7.64,2.4,9.81,8.99,10.38,13.32h1.41c-.59-4.69-2.91-12-11.38-14.66l-.41,1.34Z" style="fill: #64452e;"/>
          <path d="m421.8,256.08c3.2,3.05,3.89,6.77,3.85,9.53h1.43c.06-3.03-.71-7.13-4.28-10.55l-.99,1.02Z" style="fill: #64452e;"/>
        </g>
        <path d="m266.66,169.55c17.19-16.18,42.84-39.53,47.52-40.52,3.8-9.69,5.53-1.72,5.53-1.72,0,0,2.43-6.24,5.88-5.19,3.46,1.03,38.43,21.8,65.31,24.93-20.28-3.28-64.67-28.34-64.67-28.34,0,0-1.19-3.58-3.28-2.39-.27.17-1.29.88-2.88,2.05.98-6.83-5.27.69-8.26,6.45-11.33,9.19-29.34,25.18-45.15,44.74Z" style="fill: #d3905f; mix-blend-mode: screen; opacity: .4;"/>
        <path d="m185.73,50.27c.21,2.29,1.4,4.06,2.67,3.94,1.26-.12,2.12-2.07,1.91-4.36s-1.4-4.06-2.67-3.94c-1.26.12-2.12,2.07-1.91,4.36Z" style="fill: #743455;"/>
      </g>
    </g>
  </g>
</svg>