<?xml version="1.0" encoding="UTF-8"?>
<svg xmlns="http://www.w3.org/2000/svg" viewBox="0 0 355.34 467.76">
  <g style="isolation: isolate;">
    <g id="uuid-ef4635f0-1f18-4ac6-9044-aad007d46739" data-name="Layer 1">
      <g>
        <path d="m323.65,133c10.16,9.9,24.35,9.25,24.35,9.25,0,0-6.64,2.74-10.55,1.17,10.55,7.16,12.76,15.5,12.76,15.5,0,0-7.16-7.29-9.25-8.47,8.2,16.54,8.2,20.58,8.2,20.19s-11.07-21.75-25.13-30.86c17.97,25.26,15.76,35.42,15.76,35.42,0,0-12.63-26.44-19.67-30.6,2.73,12.76-1.04,17.32-1.04,17.32,0,0,.78-20.32-7.68-27.74,6.25-2.08,12.24-1.17,12.24-1.17Z" style="fill: #8d8131;"/>
        <polygon points="335.79 251.33 314.25 281.48 302.09 270.08 329.96 247.53 335.79 251.33" style="fill: #c47d56;"/>
        <g>
          <path d="m212.7,362.19c3.27-.46,8.86.25,15.28,2.93,9.15,3.8,19.97,11.6,28.1,25.64-.03,24.39-13.44,43.03-25.15,54.65-9.06,9-17.11,13.81-17.11,13.81l3.88,6.47h116.39s-19.51-37.46-32.43-31.97c-3.06,1.31-8.5,3.51-15.03,6.09-20.64,8.19-52.1,20.33-53.07,20.7,1.22-1.46,40.71-47.64,64.97-59.4-.24,4.83,1.21,8.38,11.54-6.79,1.62,5.82,4.85,2.27,3.88-4.2-.97-6.45-3.95-54.75-31-89.53-9.37-12.04-36.81-21.88-62,1.69-25.18,23.58-16.15,61.03-8.22,59.91Z" style="fill: #d3905f;"/>
          <path d="m256.08,390.76c-.03,24.39-13.44,43.03-25.15,54.65,5.67-1.53,10.21-3.21,10.21-3.21,10.9-9.34,31.55-46.72,31.55-52.18s-4.29-25.31-2.73-29.59c1.56-4.29-33.49-14.41-35.05-13.63-.55.28-3.42,8.16-6.93,18.32,9.15,3.8,19.97,11.6,28.1,25.64Z" style="fill: #d3905f; mix-blend-mode: multiply; opacity: .2;"/>
          <path d="m278.59,465.69h55.49s-19.51-37.46-32.43-31.97c-3.06,1.31-8.5,3.51-15.03,6.09-7.53,9.19-8.16,20.82-8.03,25.89Z" style="fill: #64452e;"/>
          <g>
            <path d="m303.32,465.69h1.47c.68-4.67.72-13.06-5.81-18.73l-.97,1.12c6.13,5.32,5.95,13.31,5.3,17.61Z" style="fill: #64452e; mix-blend-mode: multiply; opacity: .5;"/>
            <path d="m312.01,446.81c6.65,7.09,7.51,15.25,7.53,18.88h1.49c.01-3.85-.87-12.35-7.94-19.89l-1.08,1.02Z" style="fill: #64452e; mix-blend-mode: multiply; opacity: .5;"/>
          </g>
        </g>
        <g>
          <path d="m234.6,75.7l5.36-.38,3.96-.28s1.46-.94,3.85-2.58c1.44-.99,3.23-2.22,5.23-3.65,3.29-2.34,7.15-5.19,11.04-8.27.46-.37.9-.72,1.36-1.09,6.16-4.97,12.19-10.45,15.88-15.29,2.2-2.89,3.57-5.56,3.62-7.77.32-12.32-7.66-32.31-11.01-31.65-2.36.49-21.01,35.73-31.74,56.36-3.57,6.84-6.26,12.07-7.21,13.9-.22.46-.35.71-.35.71Z" style="fill: #d3905f;"/>
          <path d="m239.96,75.32l3.96-.28s27.35-17.71,37.35-30.88c1.47-9.4-2.36-20.82-4.04-19.42-1.75,1.46-29.97,40.43-37.28,50.58Z" style="fill: #f0c09f;"/>
          <path d="m234.95,74.99l8.96-2.53c2.52-.99,5.61-2.22,9.09-3.65,3.29-2.34,7.15-5.19,11.04-8.27-10.15.77-18.6.65-21.88.56-3.57,6.84-6.26,12.07-7.21,13.9Z" style="fill: #d3905f; mix-blend-mode: multiply; opacity: .4;"/>
          <path d="m233.38,77.78C218.69,44.11,201.97,1.4,194.52.04c-7.46-1.36-7.91,29.15-6.1,44.97,1.81,15.82,40.22,44.52,40.22,44.52l4.75-11.75Z" style="fill: #d3905f;"/>
          <path d="m231.35,79.81S199.04,9.76,196.55,9.08c-2.49-.68-1.36,21.69,4.75,40,6.1,18.3,28.25,34.12,28.25,34.12l1.81-3.39Z" style="fill: #f0c09f;"/>
          <path d="m227.38,154.73c6.97,37.52,43.04,26.94,36.31,4.8-5.86-19.26,5.41-37.23,8.43-41.58.46-.65.72-.99.72-.99,0,0,.85.99,2.4,2.55,6.07,6.13,22.79,21.2,39.68,20.05.04,0,.09,0,.13-.01,1.22-.09,2.4-.24,3.54-.46h.01c17.84-3.37,27.48-21.72,30.77-35.13,1.21-4.91,1.56-9.17,1.15-11.77-.68-4.32-10.39-9.64-23.99-14.31-29.96-10.31-78.79-17.51-91.46-3.98-14.65,15.62-14.68,43.29-7.69,80.82Z" style="fill: #d3905f;"/>
          <path d="m326.53,77.88c.27,6.38,1.86,21.54,5.95,23.93,2.8,1.62,10.9,2.06,16.89,2.15,1.21-4.91,1.56-9.16,1.15-11.77-.68-4.32-10.39-9.64-23.99-14.31Z" style="fill: #64452e;"/>
          <g>
            <path d="m246.87,91.26c1.16,5.96,6.94,9.85,12.9,8.68,5.96-1.16,9.85-6.94,8.68-12.9-1.16-5.96-6.94-9.85-12.9-8.68-5.96,1.16-9.85,6.94-8.68,12.9Z" style="fill: #bd764f;"/>
            <path d="m248.46,90.95c.99,5.08,5.91,8.39,10.99,7.4,5.08-.99,8.39-5.91,7.4-10.99-.99-5.08-5.91-8.39-10.99-7.4s-8.39,5.91-7.4,10.99Z" style="fill: #64452e;"/>
            <path d="m248.67,91.99c.88,4.5,5.71,7.34,10.79,6.35,5.08-.99,8.48-5.44,7.6-9.94-.88-4.5-5.71-7.34-10.79-6.35-5.08.99-8.48,5.44-7.6,9.94Z" style="fill: #fff;"/>
            <path d="m252.62,90.15c.5,2.56,2.99,4.24,5.55,3.74,2.56-.5,4.24-2.99,3.74-5.55s-2.99-4.24-5.55-3.74c-2.56.5-4.24,2.99-3.74,5.55Z" style="fill: #64452e;"/>
            <path d="m251.91,87.2c0,.93.75,1.68,1.68,1.68s1.68-.75,1.68-1.68-.75-1.68-1.68-1.68-1.68.75-1.68,1.68Z" style="fill: #fff;"/>
          </g>
          <path d="m270.49,91.16c-14.95-4.82-22.96,2.72-24.93,6.25-1.97,3.53,5.34,8.04,16.99,6.06,11.65-1.98,15.49-9.88,7.94-12.31Z" style="fill: #d3905f;"/>
          <path d="m345.63,91.46c1.17,2.25-12.56,1.57-13.82,1.1-1.26-.47-3.61-10.36-3.3-11.93s15.23,7.22,17.12,10.84Z" style="fill: #64452e; mix-blend-mode: screen; opacity: .5;"/>
          <path d="m261.69,73.17c-6.98-2.38-17.09,5.35-17.09,5.35,0,0,7.28-14.56,17.09-5.35Z" style="fill: #64452e;"/>
        </g>
        <path d="m0,460.27c-.29,3.01,28.76,6.98,54.86,7.44,15.13.27,29.25-.65,36.07-3.62,18.58-8.1,35.72-66.19,56.18-78.08,20.47-11.91,88.07-3.82,126.16-25.71,38.09-21.9,51.9-46.18,51.9-59.04,0-10.46-37.29-85.96-53.97-123.3-3.82-8.56-6.56-15.1-7.51-18.42-5.16-17.76-37.93-20.41-36.31-4.8,2.4,23.06,8.3,65.11-10.76,86.54-19.04,21.42-73.31,47.61-85.7,67.6-12.38,20-43.1,114.12-55.95,127.45C62.11,449.64.47,455.51,0,460.27Z" style="fill: #d3905f;"/>
        <path d="m54.86,467.71c15.13.27,29.25-.65,36.07-3.62,18.58-8.1,35.72-66.19,56.18-78.08,20.47-11.91,88.07-3.82,126.16-25.71,38.09-21.9,51.9-46.18,51.9-59.04,0-3.71-4.7-15.63-11.51-31.12-2.87-6.53-6.11-13.69-9.55-21.14-11.33-24.67-24.65-52.54-32.92-71.04-10.7-9-16.39.27-10.3,35.23,4.45,25.52,7.24,46.41,6.63,62.45-.31,8.32-1.55,15.35-3.92,21.03-.4.93-.83,1.83-1.28,2.7-8.56,16.19-29.99,29.51-58.09,39.99-28.08,10.48-42.85,14.76-57.6,22.85-14.76,8.09-42.85,79.04-53.33,91.89-7.35,9.02-24.58,12.42-38.46,13.63Z" style="fill: #f0c09f;"/>
        <path d="m305.91,335.9c-22.42,8.57-43.85-13.42-43.85-13.42,0,0,22.79,34.59,43.85,13.42Z" style="fill: #bd7d67;"/>
        <g>
          <path d="m146.64,362.19c7.93-1.12,29.54,4.69,43.38,28.57-.05,35.25-28.05,58.49-38.44,65.9-2.12,1.51-2.73,4.38-1.39,6.61h0c.9,1.5,2.52,2.42,4.26,2.42h113.58s-19.51-37.46-32.43-31.97c-3.06,1.31-8.5,3.51-15.03,6.09-20.97,8.33-53.1,20.72-53.1,20.72,0,0,40.36-47.46,65-59.41-.24,4.83,1.21,8.38,11.54-6.79,1.62,5.82,4.85,2.27,3.88-4.2-.97-6.45-3.95-54.75-31-89.53-9.37-12.04-36.81-21.88-62,1.69-25.18,23.58-16.15,61.03-8.22,59.91Z" style="fill: #d3905f;"/>
          <path d="m212.54,465.69h55.49s-19.51-37.46-32.43-31.97c-3.06,1.31-8.5,3.51-15.03,6.09-7.53,9.19-8.16,20.82-8.03,25.89Z" style="fill: #64452e;"/>
          <g>
            <path d="m237.26,465.69h1.47c.68-4.67.72-13.06-5.81-18.73l-.97,1.12c6.13,5.32,5.95,13.31,5.3,17.61Z" style="fill: #64452e; mix-blend-mode: multiply; opacity: .5;"/>
            <path d="m245.96,446.81c6.65,7.09,7.51,15.25,7.53,18.88h1.49c.01-3.85-.87-12.35-7.94-19.89l-1.08,1.02Z" style="fill: #64452e; mix-blend-mode: multiply; opacity: .5;"/>
          </g>
          <path d="m237.26,382.89c-1.8,9.05-21.78-14.81-23.2-19.65-.14,8.76-5.79.77-13.6-6.48-7.81-7.25-44.45-15.27-47.24-29.08-2.8-13.81,39.59-37.05,59.23-17.88,19.64,19.17,26.4,65.03,24.8,73.08Z" style="fill: #946543; mix-blend-mode: screen; opacity: .2;"/>
        </g>
        <path d="m231.15,257.15c2.23,11.12,19.91,28.91,32.46,39.5,6.54,5.54,11.7,9.12,12.51,8.77,2.37-1.02,3.05-6.44,3.05-6.44,0,0,.68,4.41,4.74,7.12-.75-13.75,5.88-31.93,9.4-40.52,1.27-3.05,2.12-4.89,2.12-4.89,0,0,8.02,3.01,18.23,9.45-2.87-6.53-6.11-13.69-9.55-21.14-5.67.09-10.52.25-11.05.52-.43.22-2.67,3.52-5.51,7.94-6.14,9.53-15.16,24.25-15.16,24.25,0,0-1.93-1.77-4.86-6.07-4.52-6.65-11.4-19.3-17.17-40.7,0,0-22.6,5.28-19.21,22.22Z" style="fill: #d3905f; mix-blend-mode: multiply; opacity: .2;"/>
        <path d="m230.11,254.69c3.39,16.95,42.38,44.4,44.75,43.38,2.37-1.02,3.05-6.44,3.05-6.44,0,0,.68,4.41,4.74,7.12-.75-13.75,5.88-31.93,9.4-40.52,1.27-3.05,2.12-4.89,2.12-4.89,0,0,10.84,4.07,23.38,12.88,9.49-4.74,4.74-24.74,4.74-24.74,0,0-29.15,0-30.5.68-.43.22-2.67,3.52-5.51,7.94-6.14,9.53-15.16,24.25-15.16,24.25,0,0-12.54-11.52-22.03-46.77,0,0-22.38,10.17-18.99,27.11Z" style="fill: #d3905f;"/>
        <path d="m346.42,211.94c-17.41,23.14-15.5,48.19-12.1,63.26,3.4,15.07,21.02,37.79,21.02,37.79,0,0-19.96-11.89-25.05-33.97,1.27,28.66,2.12,42.25,2.12,42.25,0,0-7.85-14.86-7.85-19.74s1.49-21.02,1.49-21.02c0,0-7.43,30.15-21.44,38.64,12.95-21.44,15.71-43.73,15.71-43.73,0,0-9.34,22.5-23.35,28.24,19.53-22.08,24.41-52.22,22.29-64.75-2.12-12.53-22.5-36.09-28.24-38.85,16.56,2.55,29.08,23.14,29.51,28.45.21-24.2-8.07-47.34-8.07-47.34,0,0,8.07,6.58,10.4,13.59,2.34,7.01,1.91,37.58,1.91,37.58,0,0,.85-26.75,14.22-34.82-6.58,11.46-9.13,37.79-9.13,37.79,0,0,5.1-15.71,9.98-19.96,3.88-3.37,6.58-3.4,6.58-3.4Z" style="fill: #8d8131;"/>
        <path d="m286.29,250.09c1.37,3.73,4.08,6.62,5.76,8.13,1.27-3.05,2.12-4.89,2.12-4.89,0,0,10.84,4.07,23.38,12.88,3.27-1.64,4.85-5.1,5.51-8.91.1-.57.18-1.16.24-1.75.31-2.92.18-5.89-.1-8.37-.04-.56-.12-1.08-.18-1.58-.34-2.48-.72-4.13-.72-4.13,0,0-29.15,0-30.5.68-.43.22-2.67,3.52-5.51,7.94Z" style="fill: #64452e;"/>
        <g style="mix-blend-mode: multiply; opacity: .5;">
          <path d="m323.02,245.6c.06.5.13,1.02.18,1.58-3.43-.71-8.35-1.13-14.44-.12l-.25-1.46c6.07-1.02,10.98-.66,14.51,0Z" style="fill: #64452e;"/>
          <path d="m323.3,255.54c-.06.59-.13,1.18-.24,1.75-2.56-2.21-7-5.08-13.01-5.57l.12-1.46c5.91.47,10.33,3.04,13.13,5.27Z" style="fill: #64452e;"/>
        </g>
        <path d="m323.88,254.29c0,.5.03,1,.07,1.49.28,3.86,1.36,7.15,2.3,8.38,2.77,3.61,13.38,1.27,13.38,1.27,0,0,.44-3.34.59-7.84.01-.49.03-1,.03-1.52.06-2.89-.04-6.12-.44-9.19-.06-.52-.13-1.02-.22-1.52-.49-2.87-1.27-5.53-2.51-7.53-6.42.63-9.95,3.89-11.7,7.93-.24.52-.44,1.05-.6,1.59-.72,2.25-.96,4.67-.9,6.94Z" style="fill: #64452e;"/>
        <g style="mix-blend-mode: multiply; opacity: .5;">
          <path d="m324.78,247.35c.16-.55.37-1.08.6-1.59,3.39-.52,8.38-.94,14.2-.4.09.5.16,1,.22,1.52-6.29-.62-11.68-.07-15.03.47Z" style="fill: #64452e;"/>
          <path d="m340.25,256.08c0,.52-.01,1.03-.03,1.52-6.81-1.77-12.86-1.93-16.27-1.81-.04-.49-.07-.99-.07-1.49,3.43-.12,9.47.01,16.37,1.78Z" style="fill: #64452e;"/>
        </g>
        <g>
          <path d="m292.92,115.46c.04.27.12.62.24,1.05.32,1.37.97,3.52,2.15,6,1.27,2.64,3.15,5.64,5.92,8.5,3.24,3.33,7.69,6.45,13.82,8.55,1.22-.09,2.4-.24,3.54-.46-7.68-1.97-12.95-5.48-16.56-9.27-2.52-2.62-4.24-5.36-5.41-7.84-1.08-2.27-1.69-4.3-2.03-5.76-.09-.38-.16-.74-.22-1.03l-1.44.27Z" style="fill: #bd764f;"/>
          <path d="m290.99,117.75c.1-.1,2.68-2.58,6.5-1l.56-1.36c-4.74-1.97-7.97,1.19-8.1,1.32l1.04,1.04Z" style="fill: #bd764f;"/>
        </g>
        <path d="m281.97,137.81c-5.86,23.71,1.43,35.17,1.43,35.17,0,0-.91-21.75,4.57-32.3-2.48,21.75,10.02,34.24,10.02,34.24,0,0-1.43-4.69-1.96-15.62.94,2.68,6.78,7.56,7.99,8.53-.78-.75-3.37-3.98-4.6-14.53,1.56,3.39,4.57,4.82,4.57,4.82,0,0-9.21-16.37-2.76-27.13.24-.4.5-.8.8-1.18-2.52-2.62-4.24-5.36-5.41-7.84-.44.15-.88.32-1.31.52-12.8,5.35-18.55,17.96-18.55,18.43,0,.53,2.87-2.34,5.22-3.12Z" style="fill: #8d8131;"/>
        <path d="m249.1,227.58c4.01,37.31,24.37,52.63,24.37,52.63,0,0,10.12-24.83,18.33-38.06-.43.22-2.67,3.52-5.51,7.94-6.14,9.53-15.16,24.25-15.16,24.25,0,0-12.54-11.52-22.03-46.77Z" style="fill: #d3905f; mix-blend-mode: screen; opacity: .3;"/>
      </g>
    </g>
  </g>
</svg>